<svg xmlns="http://www.w3.org/2000/svg" width="19.533" height="25.475" viewBox="0 0 19.533 25.475">
  <g id="電話の受話器のアイコン素材" transform="translate(0.001 0)">
    <path id="パス_13" data-name="パス 13" d="M61.458,1.079c-1.75,1.135-2.094,4.684-1.433,7.576a26.124,26.124,0,0,0,3.454,8.118,27.129,27.129,0,0,0,6,6.465c2.371,1.783,5.751,2.916,7.5,1.781a8.865,8.865,0,0,0,2.26-2.424l-.94-1.45-2.586-3.987c-.192-.3-1.4-.025-2.009.321A5.829,5.829,0,0,0,72.123,19.2c-.566.327-1.04,0-2.031-.455-1.218-.56-2.587-2.3-3.677-3.878-1-1.638-2.027-3.6-2.042-4.939-.012-1.091-.116-1.657.413-2.04a5.829,5.829,0,0,0,2.22-.746c.566-.418,1.3-1.407,1.113-1.7L65.533,1.454,64.593,0A8.865,8.865,0,0,0,61.458,1.079Z" transform="translate(-59.713 0)"/>
  </g>
</svg>
