<svg id="コンポーネント_79_1" data-name="コンポーネント 79 – 1" xmlns="http://www.w3.org/2000/svg" width="300" height="107.065"><defs><clipPath id="clip-path"><path id="_26dd09d9314960847c3c04701305cbf1" data-name="26dd09d9314960847c3c04701305cbf1" class="cls-1" d="M0 0h300v107.065H0z" transform="translate(1090 210)"/></clipPath><style>.cls-1{fill:#1c83d1}.cls-2{fill:#0d5bab}.cls-5{fill:#fff}<![CDATA[@import url("https://fonts.googleapis.com/css2?family=Noto+Sans+JP:wght@400;500;700&display=swap");]]>font-family: &apos;Noto Sans JP&apos;, sans-serif; } .cls-9 { font-family: NotoSansCJKjp-Bold, Noto Sans CJK JP; font-weight: 700;<![CDATA[@import url("https://fonts.googleapis.com/css2?family=Noto+Sans+JP:wght@400;500;700&display=swap");]]>font-family: &apos;Noto Sans JP&apos;, sans-serif; }</style></defs><g id="グループ_11147" data-name="グループ 11147" transform="translate(-1090 -210)"><path id="_26dd09d9314960847c3c04701305cbf1-2" data-name="26dd09d9314960847c3c04701305cbf1" class="cls-2" d="M0 0h300v107.065H0z" transform="translate(1090 210)"/><path id="_26dd09d9314960847c3c04701305cbf1-3" data-name="26dd09d9314960847c3c04701305cbf1" class="cls-2" d="M0 0h300v107.065H0z" transform="translate(1090 210)"/><path id="_26dd09d9314960847c3c04701305cbf1-4" data-name="26dd09d9314960847c3c04701305cbf1" class="cls-1" d="M0 0h300v107.065H0z" transform="translate(1090 210)"/><g id="マスクグループ_82" data-name="マスクグループ 82" clip-path="url(#clip-path)"><g id="white_AdobeStock_169664974_更新済み_" data-name="white_AdobeStock_169664974 [更新済み]" transform="translate(1408.517 156.959)" opacity=".303"><g id="グループ_11146" data-name="グループ 11146" transform="translate(-160.577)"><g id="グループ_11117" data-name="グループ 11117" transform="translate(92.658 114.071)"><g id="グループ_11099" data-name="グループ 11099" transform="translate(79.873 7.364)"><g id="グループ_11090" data-name="グループ 11090" transform="translate(0 43.099)"><path id="パス_8919" data-name="パス 8919" class="cls-5" d="M381.9 364.245v-.045h.361v.045l9.126 15.767h18.251l9.126-15.767-.045-.045h.361v.045l-9.306 16.083h-18.568z" transform="translate(-381.9 -364.2)"/></g><g id="グループ_11095" data-name="グループ 11095" transform="translate(7.228)"><g id="グループ_11091" data-name="グループ 11091" transform="translate(1.717)"><path id="パス_8920" data-name="パス 8920" class="cls-5" d="M432.017 286.6h.316l-10.617 18.342 10.345 17.89h-.045v.226h-.181L421.4 304.942z" transform="translate(-412.5 -278.559)"/><path id="パス_8921" data-name="パス 8921" class="cls-5" d="M402.061 295.183l15.044 26.117H444.8v.316h-27.83l-15.225-26.338-.045-.09 15.225-26.338.045-.045h30.494l14.954 25.886h-.361l-14.773-25.615h-30.179z" transform="translate(-401.7 -268.8)"/></g><path id="パス_8922" data-name="パス 8922" class="cls-5" d="M569.3 390.47l14.908-25.841-14.908-25.842v-.587l15.225 26.338.045.09-15.224 26.338-.045.045z" transform="translate(-491.867 -306.847)"/><g id="グループ_11094" data-name="グループ 11094" transform="translate(0 71.289)"><g id="グループ_11092" data-name="グループ 11092" transform="translate(8.629 4.698)"><path id="パス_8923" data-name="パス 8923" class="cls-5" d="M427.662 473.774v.316h-.181L417 455.929 427.933 437h19.7v.316h-19.565l-10.752 18.613z" transform="translate(-417 -437)"/></g><g id="グループ_11093" data-name="グループ 11093"><path id="パス_8924" data-name="パス 8924" class="cls-5" d="M397.945 450.318l-.045-.09 13.6-23.628h.361l-13.643 23.627L411 472.364h-.361z" transform="translate(-397.9 -426.6)"/></g></g></g><g id="グループ_11098" data-name="グループ 11098" transform="translate(43.731 37.226)"><g id="グループ_11097" data-name="グループ 11097"><g id="グループ_11096" data-name="グループ 11096"><path id="パス_8925" data-name="パス 8925" class="cls-5" d="M478.7 371.62h.316l11.565 19.968h23.13l11.565-20.058-11.565-20.059h-23.175v-.271h23.356l11.7 20.239.045.09-11.7 20.284-.045.045H490.4z" transform="translate(-478.7 -351.2)"/></g></g></g></g><g id="グループ_11115" data-name="グループ 11115" transform="translate(2.304 1.31)"><g id="グループ_11106" data-name="グループ 11106" transform="translate(25.163 32.256)"><path id="パス_8926" data-name="パス 8926" class="cls-5" d="M317.535 493.493h-.361l-9.035-15.676h-18.252l-9.126 15.812 8.99 15.541h-.361l-8.99-15.541 9.306-16.128h18.613z" transform="translate(-273.849 -409.419)"/><g id="グループ_11101" data-name="グループ 11101" transform="translate(0 22.227)"><g id="グループ_11100" data-name="グループ 11100"><path id="パス_8927" data-name="パス 8927" class="cls-5" d="M317.492 397.233l.045.09-12.921 22.363-.045.09H278.64L265.9 397.73h.316l12.559 21.73h25.615l12.785-22.137L304.888 376h.361z" transform="translate(-265.9 -376)"/></g></g><g id="グループ_11103" data-name="グループ 11103" transform="translate(7.273)"><g id="グループ_11102" data-name="グループ 11102"><path id="パス_8928" data-name="パス 8928" class="cls-5" d="M319.18 342.883v.045h-.361l.045-.045-9.126-15.812h-18.251l-9.126 15.812v.045h-.316l-.045-.045 9.306-16.083h18.613z" transform="translate(-282 -326.8)"/></g></g><g id="グループ_11105" data-name="グループ 11105" transform="translate(37.452 25.028)"><g id="グループ_11104" data-name="グループ 11104"><path id="パス_8929" data-name="パス 8929" class="cls-5" d="M385.98 398.283v.045h-.361l.045-.045-9.126-15.812h-18.251l-9.126 15.812v.045h-.316l-.045-.045 9.306-16.083h18.613z" transform="translate(-348.8 -382.2)"/></g></g></g><g id="グループ_11113" data-name="グループ 11113"><g id="グループ_11109" data-name="グループ 11109" transform="translate(0 46.984)"><g id="グループ_11107" data-name="グループ 11107" transform="translate(40.84)"><path id="パス_8930" data-name="パス 8930" class="cls-5" d="M311.533 377.471l-10.571 18.387h-.362l10.617-18.387-10.481-18.071h.361z" transform="translate(-300.6 -359.4)"/></g><g id="グループ_11108" data-name="グループ 11108" transform="translate(0 18.116)"><path id="パス_8931" data-name="パス 8931" class="cls-5" d="M210.2 400h.316l14.818 25.615h30.133l15.044-26.115h.361l-15.179 26.338-.045.045h-30.494z" transform="translate(-210.2 -399.5)"/></g></g><g id="グループ_11111" data-name="グループ 11111" transform="translate(.904 5.783)"><g id="グループ_11110" data-name="グループ 11110"><path id="パス_8932" data-name="パス 8932" class="cls-5" d="M212.245 294.132l-.045-.09 14.954-25.842h.316l-14.908 25.841 15.089 26.112h28.778v.316H227.47z" transform="translate(-212.2 -268.2)"/></g></g><g id="グループ_11112" data-name="グループ 11112" transform="translate(22.498)"><path id="パス_8933" data-name="パス 8933" class="cls-5" d="M279.516 270.263L288.1 255.4v.136h.271l-8.671 15.043H260v-.316z" transform="translate(-260 -255.4)"/><path id="パス_8934" data-name="パス 8934" class="cls-5" d="M435 517.119h.361l13.6-23.537.045-.045L436.22 471.4h-.32l12.74 22.137z" transform="translate(-355.941 -373.818)"/></g></g><g id="グループ_11114" data-name="グループ 11114" transform="translate(11.746 24.079)"><path id="パス_8935" data-name="パス 8935" class="cls-5" d="M244.6 308.7h16.851l7.906 13.643H269l-7.68-13.327h-16.536l-8.267 14.276.09.135h-.361l-.045-.135z" transform="translate(-236.2 -308.7)"/></g></g><g id="グループ_11116" data-name="グループ 11116"><path id="パス_8936" data-name="パス 8936" class="cls-5" d="M299.091 358.982a1.491 1.491 0 10-1.491-1.491 1.5 1.5 0 001.491 1.491z" transform="translate(-255.812 -309.242)"/><path id="パス_8937" data-name="パス 8937" class="cls-5" d="M280.291 362.182a1.491 1.491 0 10-1.491-1.491 1.5 1.5 0 001.491 1.491z" transform="translate(-245.505 -310.996)"/><path id="パス_8938" data-name="パス 8938" class="cls-5" d="M234.391 340.682a1.491 1.491 0 10-1.491-1.491 1.5 1.5 0 001.491 1.491z" transform="translate(-220.341 -299.209)"/><path id="パス_8939" data-name="パス 8939" class="cls-5" d="M322.091 363.782a1.491 1.491 0 10-1.491-1.491 1.5 1.5 0 001.491 1.491z" transform="translate(-268.421 -311.874)"/><path id="パス_8940" data-name="パス 8940" class="cls-5" d="M259.291 288.382a1.491 1.491 0 10-1.491-1.491 1.5 1.5 0 001.491 1.491z" transform="translate(-233.992 -270.537)"/><path id="パス_8941" data-name="パス 8941" class="cls-5" d="M351.191 375.682a1.491 1.491 0 10-1.491-1.491 1.448 1.448 0 001.491 1.491z" transform="translate(-284.374 -318.398)"/><path id="パス_8942" data-name="パス 8942" class="cls-5" d="M343.191 459.382a1.491 1.491 0 10-1.491-1.491 1.475 1.475 0 001.491 1.491z" transform="translate(-279.989 -364.285)"/><path id="パス_8943" data-name="パス 8943" class="cls-5" d="M279.391 492.982a1.491 1.491 0 10-1.491-1.491 1.535 1.535 0 001.491 1.491z" transform="translate(-245.011 -382.705)"/><path id="パス_8944" data-name="パス 8944" class="cls-5" d="M460.7 363.708a2.3 2.3 0 10-2.3-2.3 2.285 2.285 0 002.3 2.3z" transform="translate(-343.967 -310.942)"/><path id="パス_8945" data-name="パス 8945" class="cls-5" d="M314.6 299.508a2.3 2.3 0 10-2.3-2.3 2.314 2.314 0 002.3 2.3z" transform="translate(-263.87 -275.745)"/><path id="パス_8946" data-name="パス 8946" class="cls-5" d="M242.5 267.708a2.3 2.3 0 10-2.3-2.3 2.314 2.314 0 002.3 2.3z" transform="translate(-224.343 -258.311)"/><path id="パス_8947" data-name="パス 8947" class="cls-5" d="M566.5 453.308a2.3 2.3 0 10-2.3-2.3 2.314 2.314 0 002.3 2.3z" transform="translate(-401.97 -360.063)"/><path id="パス_8948" data-name="パス 8948" class="cls-5" d="M494.262 385.024a1.762 1.762 0 10-1.762-1.762 1.736 1.736 0 001.762 1.762z" transform="translate(-362.662 -323.222)"/><path id="パス_8949" data-name="パス 8949" class="cls-5" d="M297.8 439.608a2.3 2.3 0 10-2.3-2.3 2.344 2.344 0 002.3 2.3z" transform="translate(-254.66 -352.552)"/><path id="パス_8950" data-name="パス 8950" class="cls-5" d="M207.4 400.008a2.3 2.3 0 10-2.3-2.3 2.285 2.285 0 002.3 2.3z" transform="translate(-205.1 -330.842)"/><path id="パス_8951" data-name="パス 8951" class="cls-5" d="M423.7 527.208a2.3 2.3 0 10-2.3-2.3 2.344 2.344 0 002.3 2.3z" transform="translate(-323.683 -400.578)"/><path id="パス_8952" data-name="パス 8952" class="cls-5" d="M477.4 548.608a2.3 2.3 0 10-2.3-2.3 2.344 2.344 0 002.3 2.3z" transform="translate(-353.123 -412.31)"/><path id="パス_8953" data-name="パス 8953" class="cls-5" d="M346 417.308a2.3 2.3 0 10-2.3-2.3 2.344 2.344 0 002.3 2.3z" transform="translate(-281.085 -340.327)"/><path id="パス_8954" data-name="パス 8954" class="cls-5" d="M432.2 572.108a2.3 2.3 0 10-2.3-2.3 2.344 2.344 0 002.3 2.3z" transform="translate(-328.343 -425.193)"/><circle id="楕円形_462" data-name="楕円形 462" class="cls-5" cx=".768" cy=".768" r=".768" transform="translate(103.907 92.703)"/><path id="パス_8955" data-name="パス 8955" class="cls-5" d="M436.263 471.236a.768.768 0 000-1.536.792.792 0 00-.768.768.734.734 0 00.768.768z" transform="translate(-331.408 -371.576)"/><path id="パス_8956" data-name="パス 8956" class="cls-5" d="M381.463 364.336a.768.768 0 000-1.536.792.792 0 00-.768.768.712.712 0 00.768.768z" transform="translate(-301.365 -312.97)"/><path id="パス_8957" data-name="パス 8957" class="cls-5" d="M392.368 350.136a.761.761 0 00.768-.768.792.792 0 00-.768-.768.761.761 0 00-.768.768.792.792 0 00.768.768z" transform="translate(-307.345 -305.185)"/><path id="パス_8958" data-name="パス 8958" class="cls-5" d="M443.968 286.436a.761.761 0 00.768-.768.792.792 0 00-.768-.768.768.768 0 000 1.536z" transform="translate(-335.634 -270.263)"/><path id="パス_8959" data-name="パス 8959" class="cls-5" d="M427.068 426.436a.761.761 0 00.768-.768.768.768 0 10-.768.768z" transform="translate(-326.369 -347.015)"/><path id="パス_8960" data-name="パス 8960" class="cls-5" d="M355.768 254.036a.761.761 0 00.768-.768.792.792 0 00-.768-.768.761.761 0 00-.768.768.792.792 0 00.768.768z" transform="translate(-287.28 -252.5)"/><path id="パス_8961" data-name="パス 8961" class="cls-5" d="M343.568 399.336a.761.761 0 00.768-.768.792.792 0 00-.768-.768.768.768 0 100 1.536z" transform="translate(-280.592 -332.158)"/></g></g><g id="グループ_11145" data-name="グループ 11145"><g id="グループ_11127" data-name="グループ 11127" transform="translate(79.873 7.364)"><g id="グループ_11118" data-name="グループ 11118" transform="translate(0 43.099)"><path id="パス_8962" data-name="パス 8962" class="cls-5" d="M176.8 111.745v-.045h.361v.045l9.126 15.812h18.251l9.126-15.812-.045-.045h.361v.045l-9.306 16.083h-18.568z" transform="translate(-176.8 -111.7)"/></g><g id="グループ_11123" data-name="グループ 11123" transform="translate(7.228)"><g id="グループ_11119" data-name="グループ 11119" transform="translate(1.717)"><path id="パス_8963" data-name="パス 8963" class="cls-5" d="M226.917 34.1h.316l-10.617 18.387 10.345 17.845h-.045v.268h-.181L216.3 52.487z" transform="translate(-207.4 -26.059)"/><path id="パス_8964" data-name="パス 8964" class="cls-5" d="M196.961 42.683L212.005 68.8H239.7v.316h-27.83l-15.225-26.342-.045-.09 15.225-26.338.045-.045h30.494l14.954 25.886h-.361l-14.774-25.616h-30.178z" transform="translate(-196.6 -16.3)"/></g><path id="パス_8965" data-name="パス 8965" class="cls-5" d="M364.2 138.024l14.908-25.841L364.2 86.342V85.8l15.225 26.338.045.045-15.225 26.338-.045.09z" transform="translate(-286.767 -54.402)"/><g id="グループ_11122" data-name="グループ 11122" transform="translate(0 71.289)"><g id="グループ_11120" data-name="グループ 11120" transform="translate(8.629 4.698)"><path id="パス_8966" data-name="パス 8966" class="cls-5" d="M222.562 221.274v.316h-.181L211.9 203.429l10.933-18.929h19.7v.316h-19.565l-10.752 18.613z" transform="translate(-211.9 -184.5)"/></g><g id="グループ_11121" data-name="グループ 11121"><path id="パス_8967" data-name="パス 8967" class="cls-5" d="M192.845 197.818l-.045-.09 13.6-23.628h.361l-13.643 23.627 12.782 22.137h-.361z" transform="translate(-192.8 -174.1)"/></g></g></g><g id="グループ_11126" data-name="グループ 11126" transform="translate(43.731 37.226)"><g id="グループ_11125" data-name="グループ 11125"><g id="グループ_11124" data-name="グループ 11124"><path id="パス_8968" data-name="パス 8968" class="cls-5" d="M273.6 119.12h.316l11.565 19.968h23.13l11.565-20.058-11.564-20.059h-23.13l-.045.045V98.7h23.356l11.7 20.284.045.045-11.7 20.284-.045.09H285.3z" transform="translate(-273.6 -98.7)"/></g></g></g></g><g id="グループ_11143" data-name="グループ 11143" transform="translate(2.304 1.31)"><g id="グループ_11134" data-name="グループ 11134" transform="translate(25.163 32.256)"><path id="パス_8969" data-name="パス 8969" class="cls-5" d="M112.435 241.047h-.361l-9.035-15.676H84.787l-9.126 15.812 8.99 15.541h-.361l-8.99-15.541 9.306-16.083h18.613z" transform="translate(-68.749 -156.973)"/><g id="グループ_11129" data-name="グループ 11129" transform="translate(0 22.272)"><g id="グループ_11128" data-name="グループ 11128"><path id="パス_8970" data-name="パス 8970" class="cls-5" d="M112.392 144.788l.045.09-12.921 22.408-.045.045H73.54L60.8 145.285h.316l12.559 21.775h25.616l12.785-22.182L99.788 123.6h.361z" transform="translate(-60.8 -123.6)"/></g></g><g id="グループ_11131" data-name="グループ 11131" transform="translate(7.273)"><g id="グループ_11130" data-name="グループ 11130"><path id="パス_8971" data-name="パス 8971" class="cls-5" d="M114.08 90.428h-.316l-9.126-15.812H86.387l-9.126 15.812H76.9L86.206 74.3h18.613z" transform="translate(-76.9 -74.3)"/></g></g><g id="グループ_11133" data-name="グループ 11133" transform="translate(37.452 25.028)"><g id="グループ_11132" data-name="グループ 11132"><path id="パス_8972" data-name="パス 8972" class="cls-5" d="M180.88 145.783v.045h-.361l.045-.045-9.126-15.812h-18.251l-9.126 15.812v.045h-.316l-.045-.045 9.306-16.083h18.613z" transform="translate(-143.7 -129.7)"/></g></g></g><g id="グループ_11141" data-name="グループ 11141"><g id="グループ_11137" data-name="グループ 11137" transform="translate(0 46.984)"><g id="グループ_11135" data-name="グループ 11135" transform="translate(40.84)"><path id="パス_8973" data-name="パス 8973" class="cls-5" d="M106.433 125.016l-10.572 18.342H95.5l10.617-18.342L95.636 106.9H96z" transform="translate(-95.5 -106.9)"/></g><g id="グループ_11136" data-name="グループ 11136" transform="translate(0 18.116)"><path id="パス_8974" data-name="パス 8974" class="cls-5" d="M5.1 147.5h.316l14.818 25.615h30.133L65.411 147h.361l-15.179 26.338-.045.09H20.054z" transform="translate(-5.1 -147)"/></g></g><g id="グループ_11139" data-name="グループ 11139" transform="translate(.904 5.783)"><g id="グループ_11138" data-name="グループ 11138"><path id="パス_8975" data-name="パス 8975" class="cls-5" d="M7.145 41.631l-.045-.09L22.054 15.7h.316L7.461 41.541 22.55 67.653h28.778v.316H22.37z" transform="translate(-7.1 -15.7)"/></g></g><g id="グループ_11140" data-name="グループ 11140" transform="translate(22.498)"><path id="パス_8976" data-name="パス 8976" class="cls-5" d="M74.416 17.808L83 2.9v.136h.271L74.6 18.079H54.9v-.271z" transform="translate(-54.9 -2.9)"/><path id="パス_8977" data-name="パス 8977" class="cls-5" d="M229.9 264.664h.361l13.6-23.537.045-.09L231.12 218.9h-.32l12.74 22.137z" transform="translate(-150.841 -121.318)"/></g></g><g id="グループ_11142" data-name="グループ 11142" transform="translate(11.746 24.079)"><path id="パス_8978" data-name="パス 8978" class="cls-5" d="M39.5 56.2h16.854l7.906 13.643h-.36l-7.68-13.327H39.684l-8.268 14.276.09.136h-.361l-.045-.136z" transform="translate(-31.1 -56.2)"/></g></g><g id="グループ_11144" data-name="グループ 11144"><path id="パス_8979" data-name="パス 8979" class="cls-5" d="M93.991 106.582a1.491 1.491 0 10-1.491-1.491 1.5 1.5 0 001.491 1.491z" transform="translate(-50.712 -56.797)"/><path id="パス_8980" data-name="パス 8980" class="cls-5" d="M75.191 109.682a1.491 1.491 0 10-1.491-1.491 1.5 1.5 0 001.491 1.491z" transform="translate(-40.405 -58.496)"/><path id="パス_8981" data-name="パス 8981" class="cls-5" d="M29.291 88.182a1.491 1.491 0 10-1.491-1.491 1.5 1.5 0 001.491 1.491z" transform="translate(-15.241 -46.709)"/><path id="パス_8982" data-name="パス 8982" class="cls-5" d="M116.991 111.282a1.491 1.491 0 10-1.491-1.491 1.5 1.5 0 001.491 1.491z" transform="translate(-63.321 -59.374)"/><path id="パス_8983" data-name="パス 8983" class="cls-5" d="M54.191 35.882a1.491 1.491 0 10-1.491-1.491 1.5 1.5 0 001.491 1.491z" transform="translate(-28.892 -18.037)"/><path id="パス_8984" data-name="パス 8984" class="cls-5" d="M146.091 123.282a1.491 1.491 0 10-1.491-1.491 1.475 1.475 0 001.491 1.491z" transform="translate(-79.274 -65.952)"/><path id="パス_8985" data-name="パス 8985" class="cls-5" d="M138.091 206.982a1.491 1.491 0 10-1.491-1.491 1.5 1.5 0 001.491 1.491z" transform="translate(-74.889 -111.839)"/><path id="パス_8986" data-name="パス 8986" class="cls-5" d="M74.291 240.482a1.491 1.491 0 10-1.491-1.491 1.535 1.535 0 001.491 1.491z" transform="translate(-39.911 -130.205)"/><path id="パス_8987" data-name="パス 8987" class="cls-5" d="M255.6 111.308a2.3 2.3 0 10-2.3-2.3 2.314 2.314 0 002.3 2.3z" transform="translate(-138.867 -58.496)"/><path id="パス_8988" data-name="パス 8988" class="cls-5" d="M109.5 47.108a2.3 2.3 0 10-2.3-2.3 2.314 2.314 0 002.3 2.3z" transform="translate(-58.771 -23.3)"/><path id="パス_8989" data-name="パス 8989" class="cls-5" d="M37.4 15.208a2.3 2.3 0 10-2.3-2.3 2.314 2.314 0 002.3 2.3z" transform="translate(-19.243 -5.811)"/><path id="パス_8990" data-name="パス 8990" class="cls-5" d="M361.4 200.908a2.3 2.3 0 10-2.3-2.3 2.314 2.314 0 002.3 2.3z" transform="translate(-196.87 -107.618)"/><path id="パス_8991" data-name="パス 8991" class="cls-5" d="M289.162 132.624a1.762 1.762 0 000-3.524 1.736 1.736 0 00-1.762 1.762 1.764 1.764 0 001.762 1.762z" transform="translate(-157.562 -70.777)"/><path id="パス_8992" data-name="パス 8992" class="cls-5" d="M92.7 187.108a2.3 2.3 0 10-2.3-2.3 2.344 2.344 0 002.3 2.3z" transform="translate(-49.56 -100.052)"/><path id="パス_8993" data-name="パス 8993" class="cls-5" d="M2.3 147.608A2.3 2.3 0 100 145.3a2.314 2.314 0 002.3 2.308z" transform="translate(0 -78.397)"/><path id="パス_8994" data-name="パス 8994" class="cls-5" d="M218.6 274.708a2.3 2.3 0 10-2.3-2.3 2.314 2.314 0 002.3 2.3z" transform="translate(-118.583 -148.078)"/><path id="パス_8995" data-name="パス 8995" class="cls-5" d="M272.3 296.108a2.3 2.3 0 10-2.3-2.3 2.314 2.314 0 002.3 2.3z" transform="translate(-148.023 -159.81)"/><path id="パス_8996" data-name="パス 8996" class="cls-5" d="M140.9 164.808a2.3 2.3 0 10-2.3-2.3 2.344 2.344 0 002.3 2.3z" transform="translate(-75.985 -87.827)"/><path id="パス_8997" data-name="パス 8997" class="cls-5" d="M227.1 319.608a2.3 2.3 0 10-2.3-2.3 2.314 2.314 0 002.3 2.3z" transform="translate(-123.243 -172.693)"/><circle id="楕円形_463" data-name="楕円形 463" class="cls-5" cx=".768" cy=".768" r=".768" transform="translate(103.907 92.748)"/><path id="パス_8998" data-name="パス 8998" class="cls-5" d="M231.168 218.736a.761.761 0 00.768-.768.792.792 0 00-.768-.768.768.768 0 100 1.536z" transform="translate(-126.313 -119.076)"/><path id="パス_8999" data-name="パス 8999" class="cls-5" d="M176.368 111.936a.761.761 0 00.768-.768.792.792 0 00-.768-.768.768.768 0 100 1.536z" transform="translate(-96.27 -60.525)"/><circle id="楕円形_464" data-name="楕円形 464" class="cls-5" cx=".768" cy=".768" r=".768" transform="translate(84.255 43.415)"/><path id="パス_9000" data-name="パス 9000" class="cls-5" d="M238.863 34.036a.768.768 0 000-1.536.792.792 0 00-.768.768.734.734 0 00.768.768z" transform="translate(-130.53 -17.818)"/><path id="パス_9001" data-name="パス 9001" class="cls-5" d="M221.968 174.036a.768.768 0 10-.768-.768.792.792 0 00.768.768z" transform="translate(-121.269 -94.57)"/><circle id="楕円形_465" data-name="楕円形 465" class="cls-5" cx=".768" cy=".768" r=".768" transform="translate(67.72)"/><path id="パス_9002" data-name="パス 9002" class="cls-5" d="M138.468 146.936a.768.768 0 100-1.536.768.768 0 100 1.536z" transform="translate(-75.492 -79.713)"/></g></g></g><path id="長方形_23305" data-name="長方形 23305" transform="translate(-292.9 39.259)" fill="none" d="M0 0h451.768v173.931H0z"/></g></g></g><g id="グループ_11148" data-name="グループ 11148" transform="translate(-1090 -210)"><text id="エンジニア採用代行に関する" transform="translate(1240 247.452)" font-family="NotoSansCJKjp-Regular,Noto Sans CJK JP" font-size="16" fill="#fff"><tspan x="-104" y="0">エンジニア採用代行に関する</tspan></text><path id="パス_6718" data-name="パス 6718" d="M19 0h140a19 19 0 010 38H19a19 19 0 010-38z" transform="translate(1150.5 259)" fill="#fff"/><text id="ご相談_お問合せ" data-name="ご相談・お問合せ" transform="translate(1240.5 284.452)" font-size="16" fill="#1c83d1"><tspan x="-64" y="0">ご相談・お問合せ</tspan></text></g></svg>