<svg xmlns="http://www.w3.org/2000/svg" width="19.533" height="25.475"><path data-name="パス 13" d="M1.746 1.079C-.004 2.214-.348 5.763.313 8.655a26.124 26.124 0 003.454 8.118 27.129 27.129 0 006 6.465c2.371 1.783 5.751 2.916 7.5 1.781a8.865 8.865 0 002.26-2.424l-.94-1.45-2.586-3.987c-.192-.3-1.4-.025-2.009.321a5.829 5.829 0 00-1.581 1.721c-.566.327-1.04 0-2.031-.455-1.218-.56-2.587-2.3-3.677-3.878-1-1.638-2.027-3.6-2.042-4.939-.012-1.091-.116-1.657.413-2.04a5.829 5.829 0 002.22-.746c.566-.418 1.3-1.407 1.113-1.7L5.821 1.454 4.881 0a8.865 8.865 0 00-3.135 1.079z"/></svg>