<svg xmlns="http://www.w3.org/2000/svg" width="57" height="57"><defs><clipPath id="a"><path data-name="長方形 23269" transform="translate(302 2212)" fill="#fff" stroke="#707070" d="M0 0h57v57H0z"/></clipPath></defs><g data-name="マスクグループ 73" transform="translate(-302 -2212)" clip-path="url(#a)"><g data-name="グループ 10692"><g data-name="グループ 9939"><g data-name="グループ 9934"><path data-name="パス 8069" d="M332.431 2220.758a1.261 1.261 0 01-1.253-1.253v-3.521a1.261 1.261 0 011.253-1.253 1.3 1.3 0 011.253 1.253v3.521a1.224 1.224 0 01-1.253 1.253z" fill="#1c1d1d"/></g><g data-name="グループ 9935"><path data-name="パス 8070" d="M327 2222.251a1.257 1.257 0 01-1.074-.657l-1.731-3.044a1.27 1.27 0 112.208-1.253l1.731 3.044a1.276 1.276 0 01-.477 1.731 1.36 1.36 0 01-.657.179z" fill="#1c1d1d"/></g><g data-name="グループ 9936"><path data-name="パス 8071" d="M323.061 2226.185a1.36 1.36 0 01-.657-.179l-3.044-1.731a1.27 1.27 0 011.253-2.208l3.044 1.731a1.276 1.276 0 01.477 1.731 1.257 1.257 0 01-1.073.656z" fill="#1c1d1d"/></g><g data-name="グループ 9937"><path data-name="パス 8072" d="M337.862 2222.25a1.36 1.36 0 01-.656-.179 1.276 1.276 0 01-.477-1.731l1.731-3.044a1.27 1.27 0 012.208 1.253l-1.731 3.044a1.257 1.257 0 01-1.075.657z" fill="#1c1d1d"/></g><g data-name="グループ 9938"><path data-name="パス 8073" d="M341.802 2226.185a1.257 1.257 0 01-1.074-.656 1.276 1.276 0 01.477-1.731l3.044-1.731a1.27 1.27 0 011.253 2.208l-3.044 1.731a1.361 1.361 0 01-.656.179z" fill="#1c1d1d"/></g></g><path data-name="パス 8074" d="M335.775 2242.781h-6.687a1.24 1.24 0 01-1.253-1.134 11.12 11.12 0 00-1.671-4.118 12.084 12.084 0 01-2.089-6.326 8.415 8.415 0 0116.831 0c0 2.566-1.134 4.536-2.089 6.326a11.54 11.54 0 00-1.671 4.118 1.456 1.456 0 01-1.371 1.134zm-5.61-2.566h4.6a15.156 15.156 0 011.79-4 10.4 10.4 0 001.79-5.073 5.85 5.85 0 10-11.7 0c0 1.91.9 3.4 1.791 5.073a26.921 26.921 0 011.727 3.999z" fill="#1c1d1d"/><path data-name="パス 8075" d="M339.414 2232.576c-.6 3.342-3.283 5.61-3.641 8.952v3.044a2.649 2.649 0 01-2.626 2.626h-1.432a2.649 2.649 0 01-2.626-2.626v-3.044c-.418-3.641-3.581-6.028-3.76-9.967a14.5 14.5 0 00-8.415 13.071s0 .9.06 1.313a35.333 35.333 0 00-2.865 5.193 1.119 1.119 0 00.9 1.492 9.41 9.41 0 001.91 0 18.954 18.954 0 00.418 3.1 3.224 3.224 0 002.984 2.745 36.361 36.361 0 003.7-.418v6.207l17.01-2.268v-6.207a14.468 14.468 0 005.013-10.982 14.872 14.872 0 00-6.63-12.231z" fill="#1c1d1d"/><path data-name="パス 8076" d="M333.148 2248.451h-1.433a3.872 3.872 0 01-3.879-3.877v-3.044a1.261 1.261 0 011.253-1.253h6.685a1.261 1.261 0 011.253 1.253v3.044a3.834 3.834 0 01-3.879 3.877zm-2.805-5.67v1.793a1.351 1.351 0 001.373 1.373h1.432a1.351 1.351 0 001.372-1.373v-1.79z" fill="#1c1d1d"/></g></g></svg>