<svg xmlns="http://www.w3.org/2000/svg" width="57" height="57"><defs><clipPath id="a"><path data-name="長方形 23273" transform="translate(679 2317)" fill="#fff" stroke="#707070" d="M0 0h57v57H0z"/></clipPath></defs><g data-name="マスクグループ 76" transform="translate(-679 -2317)" clip-path="url(#a)"><g data-name="グループ 10391"><g data-name="グループ 10387"><g data-name="グループ 10383"><path data-name="長方形 23199" fill="#1c1d1d" d="M685.62 2350.557h6.12v13.194h-6.12z"/></g><g data-name="グループ 10384"><path data-name="長方形 23200" fill="#1c1d1d" d="M695.445 2347.301h6.12v16.45h-6.12z"/></g><g data-name="グループ 10385"><path data-name="長方形 23201" fill="#1c1d1d" d="M705.27 2343.988h6.12v19.763h-6.12z"/></g><g data-name="グループ 10386"><path data-name="長方形 23202" fill="#1c1d1d" d="M715.095 2340.676h6.12v23.019h-6.12z"/></g></g><g data-name="グループ 10390"><g data-name="グループ 10388"><path data-name="パス 8650" d="M682.816 2348.337a1.172 1.172 0 01-.9-.449 1.156 1.156 0 01.168-1.628l12.127-9.657 4.379 3.649 11.341-9.039 2.751 2.3 10.611-8.478a1.159 1.159 0 111.46 1.8l-12.127 9.657-2.751-2.3-11.341 9.039-4.379-3.649-10.611 8.478a.93.93 0 01-.728.277z" fill="#1c1d1d"/></g><g data-name="グループ 10389"><path data-name="パス 8651" d="M723.518 2332.672h-.112a1.2 1.2 0 01-1.067-1.291l.393-4.379-4.379-.393a1.184 1.184 0 11.225-2.358l5.5.449a1.2 1.2 0 011.067 1.291l-.449 5.5a1.184 1.184 0 01-1.178 1.181z" fill="#1c1d1d"/></g></g></g></g></svg>