<svg xmlns="http://www.w3.org/2000/svg" width="57" height="57"><defs><clipPath id="a"><path data-name="長方形 23272" transform="translate(1059 2317)" fill="#fff" stroke="#707070" d="M0 0h57v57H0z"/></clipPath></defs><g data-name="マスクグループ 78" transform="translate(-1059 -2317)" clip-path="url(#a)"><g data-name="グループ 10694" fill="#1c1d1d"><g data-name="グループ 9648"><path data-name="パス 7806" d="M1090.575 2337.546a3.481 3.481 0 11-3.481-3.481 3.5 3.5 0 013.481 3.481z"/><path data-name="パス 7807" d="M1094.056 2351.47c0-2.751-.618-6.569-1.348-7.523-.674-.9-3.032-1.853-5.614-1.853s-4.941.954-5.615 1.853c-.73.954-1.347 4.772-1.347 7.523z"/></g><g data-name="グループ 9649"><path data-name="パス 7808" d="M1095.46 2362.418a3.25 3.25 0 01-1.8-1.347 8.017 8.017 0 01-.73-4.435h-11.675a8.591 8.591 0 01-.73 4.435 3.169 3.169 0 01-1.8 1.347c-.562.225-.449 1.179-.112 1.179h17.011c.285 0 .453-.955-.164-1.179z"/><path data-name="パス 7809" d="M1107.249 2328.507h-40.253a.9.9 0 00-.9.954v26.668a.935.935 0 00.9.954h40.255a.9.9 0 00.9-.954v-26.668a.935.935 0 00-.902-.954zm-2.246 25.377h-35.763v-22.177h35.764z"/></g></g></g></svg>