<svg xmlns="http://www.w3.org/2000/svg" width="57" height="57"><defs><clipPath id="a"><path data-name="長方形 23270" transform="translate(679 2212)" fill="#fff" stroke="#707070" d="M0 0h57v57H0z"/></clipPath></defs><g data-name="マスクグループ 75" transform="translate(-679 -2212)" clip-path="url(#a)"><g data-name="グループ 10693"><g data-name="グループ 9959"><path data-name="パス 8111" d="M688.948 2243.522a8.36 8.36 0 00-3.019-2.822 5.013 5.013 0 01-.722-.525l1.116-1.641a6.836 6.836 0 01.722.525 11.09 11.09 0 013.61 3.413z" fill="#1c1d1d"/></g><g data-name="グループ 9960"><path data-name="パス 8112" d="M705.881 2259.207a1.819 1.819 0 01-.591-.066 14.062 14.062 0 01-3.938-2.3.985.985 0 011.182-1.575 10.654 10.654 0 003.281 1.969c.263.066.984-.459 1.116-.788a.987.987 0 01.066-1.247.954.954 0 011.378-.066 1.776 1.776 0 01.263 2.3 3.294 3.294 0 01-2.757 1.773zm1.247-2.625z" fill="#1c1d1d"/></g><g data-name="グループ 9961"><path data-name="パス 8113" d="M709.62 2257.764a2.7 2.7 0 01-1.641-.525 32.994 32.994 0 01-2.953-2.363.98.98 0 111.247-1.51c1.116.919 2.034 1.706 2.888 2.3a1.106 1.106 0 001.378-.328c.2-.263.459-.591.131-.984a.979.979 0 111.509-1.247 2.586 2.586 0 01-.2 3.61 3.312 3.312 0 01-2.359 1.047z" fill="#1c1d1d"/></g><g data-name="グループ 9962"><path data-name="パス 8114" d="M712.574 2255.139a2.629 2.629 0 01-1.51-.525c-.656-.591-2.232-1.969-3.675-3.413a.975.975 0 111.378-1.378c1.378 1.378 2.888 2.757 3.544 3.282.394.328.919-.263.984-.263a1.235 1.235 0 000-1.772.975.975 0 011.378-1.378 3.183 3.183 0 010 4.463 2.874 2.874 0 01-2.099.984z" fill="#1c1d1d"/></g><g data-name="グループ 9963"><path data-name="パス 8115" d="M715.396 2252.447a1.9 1.9 0 01-1.509-.656 37.9 37.9 0 00-4.594-4.266.994.994 0 011.118-1.645 33.8 33.8 0 014.922 4.528h.066a1.379 1.379 0 00.788-.591 1.615 1.615 0 00.2-1.706c-1.575-2.756-5.25-6.5-6.957-8.072-1.378-1.181-2.494-2.3-3.544-3.216l-.328-.328a.976.976 0 011.313-1.444l.328.328c.984.919 2.1 2.035 3.479 3.15a43.662 43.662 0 017.35 8.532 3.827 3.827 0 01-1.181 4.791 2.153 2.153 0 01-1.451.595z" fill="#1c1d1d"/></g><g data-name="グループ 9964"><path data-name="パス 8116" d="M700.826 2232.955a18.381 18.381 0 00-2.953-.919 11.986 11.986 0 01-3.938-1.641c-.919-.656-2.428-1.51-2.428-1.51l.984-1.706c.066.066 1.575.919 2.625 1.641a9.073 9.073 0 003.281 1.313c.919.263 1.9.525 3.15.984z" fill="#1c1d1d"/></g><g data-name="グループ 9965"><path data-name="パス 8117" d="M689.473 2249.428a2.629 2.629 0 01-1.706-.722 3.809 3.809 0 01-1.05-4c.525-1.378 4.2-3.807 5.513-4.2a2.814 2.814 0 013.15 1.247 2.855 2.855 0 010 3.347 20.33 20.33 0 01-5.054 4.135 2.021 2.021 0 01-.853.193zm-.919-4a2.074 2.074 0 00.525 1.838 1.016 1.016 0 00.394.2 18.164 18.164 0 004.331-3.544.9.9 0 00-.066-.984.764.764 0 00-.919-.394 11.1 11.1 0 00-4.265 2.881zm0 0z" fill="#1c1d1d"/></g><g data-name="グループ 9966"><path data-name="パス 8118" d="M692.426 2253.431a3.02 3.02 0 01-1.969-.919c-1.182-1.116-2.035-3.085-1.444-4.529l1.838.788a2.118 2.118 0 00.459 1.641c.46.722.919 1.05 1.116 1.05a16.275 16.275 0 004.529-4.463 1.379 1.379 0 00-.525-1.181c-.394-.394-.919-.788-1.312-.591l-.722-1.838a3.686 3.686 0 014.266 4.594 17.788 17.788 0 01-5.513 5.316 2.793 2.793 0 01-.723.132z" fill="#1c1d1d"/></g><g data-name="グループ 9967"><path data-name="パス 8119" d="M699.515 2258.682a4.713 4.713 0 01-3.085-1.444 1.965 1.965 0 01-.459-2.428.977.977 0 011.313-.394.989.989 0 01.459 1.247 1.767 1.767 0 00.722.656 1.584 1.584 0 001.116.328 8.727 8.727 0 002.756-3.741 1.381 1.381 0 00-.459-.788 1.609 1.609 0 00-1.181-.591 1 1 0 01-.788-1.838 3.166 3.166 0 013.15.788 2.826 2.826 0 011.181 2.888c-.394 1.444-2.363 4.4-3.938 5.053a1.146 1.146 0 01-.787.264z" fill="#1c1d1d"/></g><g data-name="グループ 9968"><path data-name="パス 8120" d="M695.641 2256.779a3.5 3.5 0 01-2.231-1.05c-1.116-1.116-1.9-2.756-1.116-4.069a1.002 1.002 0 011.706 1.05 1.111 1.111 0 00.2.919 3.14 3.14 0 001.378 1.247 16.346 16.346 0 004-4.922 1.463 1.463 0 00-.459-.853 1.427 1.427 0 00-1.05-.459 1 1 0 11-.788-1.838 3.12 3.12 0 013.216.788 2.785 2.785 0 011.05 2.953c-.591 1.772-3.413 4.922-4.791 5.907a1.833 1.833 0 01-1.115.327z" fill="#1c1d1d"/></g><g data-name="グループ 9969"><path data-name="パス 8121" d="M716.643 2247.723a1.122 1.122 0 01-.853-.459 48.936 48.936 0 00-6.432-7.219c-1.444-1.247-2.56-2.3-3.61-3.281l-.131-.131c-.131-.131-.2-.131-.2-.131h-.262c-.394 0-1.313.919-1.969 1.641a14.053 14.053 0 01-2.756 2.428 2.924 2.924 0 01-3.478-.066c-.984-.919-1.05-2.559-.131-4.4.788-1.575 3.479-5.71 6.76-6.1a47.179 47.179 0 019.057-.262 3.078 3.078 0 002.231-.525c.984-.656 2.494-1.575 2.494-1.575l1.05 1.706s-1.51.984-2.494 1.575a5.04 5.04 0 01-3.741.788 42.166 42.166 0 00-8.4.263c-2.035.263-4.331 3.15-5.25 5.054-.591 1.181-.459 1.9-.262 2.1.131.131.591.131 1.116-.2a10.884 10.884 0 002.3-2.035c1.05-1.116 2.1-2.231 3.347-2.231a2.284 2.284 0 011.837.656l.131.131c.984.984 2.166 2.035 3.544 3.282a54.5 54.5 0 015.972 6.432c.525-.788.984-1.575 1.378-2.166a23.826 23.826 0 014-3.281l2.1-1.444 1.116 1.641-2.1 1.444a27.644 27.644 0 00-3.413 2.691c-.525.919-1.378 2.231-2.231 3.413a.93.93 0 01-.72.261z" fill="#1c1d1d"/></g><path data-name="パス 8122" d="M694.329 2227.246l-6.169-4.266-9.582 14.176 6.169 4.266z" fill="#1c1d1d"/><path data-name="パス 8123" d="M715.396 2227.049l6.1-4.266 9.582 14.176-6.1 4.266z" fill="#1c1d1d"/></g></g></svg>