<svg xmlns="http://www.w3.org/2000/svg" width="57" height="57"><defs><clipPath id="a"><path data-name="長方形 23274" transform="translate(302 2317)" fill="#fff" stroke="#707070" d="M0 0h57v57H0z"/></clipPath></defs><g data-name="マスクグループ 74" transform="translate(-302 -2317)" clip-path="url(#a)"><g data-name="グループ 10691"><path data-name="パス 8604" d="M311.12 2329.153v37.953h37.953v-37.953zm8.646 31.89h-3.93v-4.267h3.93zm0-6.4h-3.93v-4.267h3.93zm0-6.344h-3.93v-4.267h3.93zm6.12 12.745h-3.93v-4.267h3.93zm0-6.4h-3.93v-4.267h3.93zm0-6.344h-3.93v-4.267h3.93zm6.176 12.745h-3.93v-4.267h3.93zm0-6.4h-3.93v-4.267h3.93zm0-6.344h-3.93v-4.267h3.93zm6.176 12.745h-3.93v-4.267h3.93zm0-6.4h-3.93v-4.267h3.93zm0-6.344h-3.93v-4.267h3.93zm6.176 12.745h-3.93v-4.267h3.93zm0-6.4h-3.93v-4.267h3.93zm0-6.344h-3.93v-4.267h3.93zm1.46-10.33h-31.609v-5.671h31.609z" fill="#1c1d1d"/><g data-name="グループ 10344"><path data-name="パス 8605" d="M320.551 2336.676a2.372 2.372 0 01-2.357-2.358v-6.962a2.358 2.358 0 014.716 0v6.962a2.3 2.3 0 01-2.359 2.358z" fill="#1c1d1d"/></g><g data-name="グループ 10345"><path data-name="パス 8606" d="M339.585 2336.676a2.372 2.372 0 01-2.358-2.358v-6.962a2.358 2.358 0 114.716 0v6.962a2.3 2.3 0 01-2.358 2.358z" fill="#1c1d1d"/></g></g></g></svg>