<svg xmlns="http://www.w3.org/2000/svg" width="287" height="87"><defs><clipPath id="a"><path data-name="長方形 22972" transform="translate(320 1797)" fill="#ccc" d="M0 0h287v87H0z"/></clipPath></defs><g data-name="マスクグループ 70" transform="translate(-320 -1797)" clip-path="url(#a)"><g data-name="グループ 9129"><g data-name="グループ 9125"><path data-name="パス 6996" d="M452.658 1871.325a27.993 27.993 0 01-2.812-.143 1.292 1.292 0 01-.185-.032 2.268 2.268 0 01-1.731-1.391l-.015-.048c-.845-2.909-1.254-4.5-1.444-5.411a24.263 24.263 0 01-5.508-2.315l-.117.077c-.945.62-2.528 1.554-4.7 2.775a1.3 1.3 0 01-.224.1 2.026 2.026 0 01-.642.1 2.427 2.427 0 01-1.641-.646 39.364 39.364 0 01-3.924-3.928 1.265 1.265 0 01-.057-.071 2.392 2.392 0 01-.465-2.184 1.288 1.288 0 01.1-.233c1.5-2.619 2.348-4.019 2.851-4.783a23.707 23.707 0 01-2.322-5.546c-.84-.183-2.387-.574-5.307-1.407a1.732 1.732 0 01-1.2-.889 5.652 5.652 0 01-.376-.811 1.288 1.288 0 01-.086-.351 27.922 27.922 0 010-5.625 1.29 1.29 0 01.032-.184 2.268 2.268 0 011.391-1.732l.048-.015c2.516-.73 4.326-1.213 5.411-1.443a24.268 24.268 0 012.328-5.532l-.1-.156c-.616-.97-1.546-2.563-2.765-4.734a1.291 1.291 0 01-.1-.224 2.357 2.357 0 01.529-2.265 31.683 31.683 0 013.917-3.919 2.428 2.428 0 011.641-.646 2.025 2.025 0 01.642.1 1.288 1.288 0 01.232.1c2.62 1.5 4.019 2.348 4.783 2.851a23.708 23.708 0 015.536-2.319c.189-.916.6-2.534 1.445-5.5l.017-.054a2.218 2.218 0 011.964-1.427 27.94 27.94 0 012.765-.138 27.984 27.984 0 012.812.143 1.29 1.29 0 01.185.032 2.268 2.268 0 011.731 1.391l.017.054c.847 2.964 1.255 4.582 1.445 5.5a24.277 24.277 0 015.528 2.327l.156-.1c.97-.616 2.563-1.546 4.734-2.765a1.289 1.289 0 01.224-.1 2.024 2.024 0 01.642-.1 2.43 2.43 0 011.623.629 31.82 31.82 0 013.942 3.945q.03.034.057.071a2.392 2.392 0 01.465 2.185 1.291 1.291 0 01-.1.224c-1.219 2.171-2.149 3.764-2.765 4.734l-.093.145a23.7 23.7 0 012.323 5.549c.849.185 2.422.583 5.4 1.435l.054.017a2.217 2.217 0 011.427 1.964 27.913 27.913 0 010 5.577 1.3 1.3 0 01-.032.185 2.268 2.268 0 01-1.391 1.731l-.048.015c-2.516.73-4.326 1.213-5.411 1.443a24.25 24.25 0 01-2.316 5.51l.077.117c.62.945 1.554 2.528 2.775 4.7a1.291 1.291 0 01.1.224 2.358 2.358 0 01-.529 2.265 31.687 31.687 0 01-3.917 3.918 2.428 2.428 0 01-1.641.646 2.024 2.024 0 01-.642-.1 1.29 1.29 0 01-.232-.1c-2.59-1.48-3.987-2.329-4.757-2.834a21.129 21.129 0 01-5.672 2.868l-.019.081c-.228.959-.661 2.557-1.287 4.749a2.107 2.107 0 01-2.01 1.583 28.02 28.02 0 01-2.766.141zm-2.366-2.7c.807.075 1.583.112 2.366.112s1.559-.037 2.365-.112c1.038-3.649 1.256-4.657 1.3-4.916a1.292 1.292 0 011.057-1.273c2.079-.386 4.091-1.7 6.037-2.973l.313-.2a1.292 1.292 0 011.6.146 55.051 55.051 0 004.737 2.871 29.1 29.1 0 003.5-3.495 46.193 46.193 0 00-2.829-4.691 1.292 1.292 0 01-.213-1.608 21.645 21.645 0 002.665-6.351 1.292 1.292 0 011.25-1 48.387 48.387 0 005.383-1.391 24.935 24.935 0 000-4.731 55.064 55.064 0 00-5.4-1.393 1.292 1.292 0 01-1.234-1 20.807 20.807 0 00-2.651-6.329 1.292 1.292 0 01.149-1.579 55.574 55.574 0 002.878-4.83 29.152 29.152 0 00-3.5-3.5 55.618 55.618 0 00-4.833 2.88 1.292 1.292 0 01-1.557.162 21.65 21.65 0 00-6.351-2.665 1.292 1.292 0 01-1-1.252 49.932 49.932 0 00-1.392-5.472c-.806-.075-1.582-.112-2.365-.112s-1.559.037-2.365.112a49.871 49.871 0 00-1.392 5.472 1.292 1.292 0 01-1 1.252 20.809 20.809 0 00-6.329 2.651 1.292 1.292 0 01-1.584-.154 55.021 55.021 0 00-4.737-2.871 29.123 29.123 0 00-3.5 3.495 55.612 55.612 0 002.88 4.833 1.292 1.292 0 01.162 1.557 21.644 21.644 0 00-2.665 6.351 1.292 1.292 0 01-1.25 1 48.385 48.385 0 00-5.382 1.391 24.946 24.946 0 000 4.74l.027.064a55.7 55.7 0 005.463 1.411 1.292 1.292 0 011.234 1 20.809 20.809 0 002.651 6.329 1.292 1.292 0 01-.153 1.584 55.016 55.016 0 00-2.871 4.737 36.777 36.777 0 003.5 3.5 46.223 46.223 0 004.688-2.828 1.292 1.292 0 011.608-.213 21.65 21.65 0 006.351 2.665 1.292 1.292 0 011 1.25 48.43 48.43 0 001.388 5.379zm2.38-12.8a13.756 13.756 0 01-2.971-.315 14.482 14.482 0 01-11.089-17.177 14.42 14.42 0 0111.486-11.192l.039-.007a16.735 16.735 0 012.6-.21 13.753 13.753 0 012.974.316 14.459 14.459 0 019.1 6.254 14.178 14.178 0 011.99 10.832 14.448 14.448 0 01-4.021 7.467 14.039 14.039 0 01-7.486 3.819h-.018a16.735 16.735 0 01-2.605.214zm-2.112-26.142a11.883 11.883 0 00-7.784 18.124l.01.015a11.447 11.447 0 007.455 5.161h.014a11.166 11.166 0 002.417.255 14.135 14.135 0 002.188-.177 11.631 11.631 0 009.406-9.263v-.018a11.614 11.614 0 00-1.628-8.879 11.891 11.891 0 00-7.483-5.141h-.005a11.167 11.167 0 00-2.417-.255 14.133 14.133 0 00-2.174.179z" fill="#1c83d1"/></g><g data-name="グループ 9128"><g data-name="グループ 9127"><g data-name="グループ 9126" fill="#f8f8f8"><path data-name="パス 6997" d="M476.631 1884.181a3.712 3.712 0 01-3.73-3.548l-1.91-25.565c-2.82-.819-6.277-3.093-6.55-6.277l-1.456-19.924v-.544a9.164 9.164 0 018.643-9.1h20.652a9.054 9.054 0 018.734 9.1l-1.456 20.379c-.273 3-3.366 5.459-6.55 6.277l-1.911 25.565a3.838 3.838 0 01-3.73 3.548h-10.735z"/><path data-name="パス 6998" d="M492.278 1821.042a7.329 7.329 0 017.005 7.369l-1.456 20.2c-.182 2.365-3.457 4.549-6.1 4.913h-.364l-2 26.929a2.065 2.065 0 01-2 1.911h-10.735a2.065 2.065 0 01-2-1.911l-2-26.929h-.364c-2.638-.364-5.913-2.456-6.1-4.913l-1.456-19.924v-.364a7.253 7.253 0 016.914-7.369h20.652m0-3.457h-20.561a10.84 10.84 0 00-10.462 10.826v.637l1.455 20.015c.273 3.457 3.275 6.186 6.642 7.46l1.82 24.382a5.567 5.567 0 005.549 5.186h10.738a5.632 5.632 0 005.55-5.186l1.819-24.382c3.366-1.274 6.277-4 6.641-7.46l1.456-20.288v-.273a10.956 10.956 0 00-10.644-10.917z"/></g><path data-name="パス 6999" d="M471.626 1819.66h20.712a8.681 8.681 0 018.237 8.66v.093l-1.456 20.2v.006a6.008 6.008 0 01-2.635 4.138 10.4 10.4 0 01-3.9 1.834l-1.922 25.867v.012a3.355 3.355 0 01-3.289 3.1h-10.736a3.355 3.355 0 01-3.289-3.1v-.018l-1.923-25.775a10.411 10.411 0 01-3.9-1.8 5.974 5.974 0 01-2.642-4.18l-1.456-19.925v-.458a8.773 8.773 0 012.375-6.036 8.19 8.19 0 015.8-2.624zm20.62 2.584h-20.6a5.981 5.981 0 00-5.639 6.077v.317l1.452 19.877c.124 1.679 2.761 3.386 4.9 3.715h.27a1.292 1.292 0 011.288 1.2l2 26.831a.776.776 0 00.714.722h10.736a.777.777 0 00.714-.721l2-26.922a1.292 1.292 0 011.288-1.2h.27a7.656 7.656 0 003.282-1.444 3.617 3.617 0 001.618-2.273l1.452-20.146a6.062 6.062 0 00-5.745-6.033z" fill="#1c83d1"/><path data-name="パス 7000" d="M481.997 1817.695a7.815 7.815 0 115.553-2.289 7.8 7.8 0 01-5.553 2.289zm0-13.1a5.258 5.258 0 105.259 5.258 5.2 5.2 0 00-5.259-5.259z" fill="#1c83d1"/><path data-name="線 987" d="M481.998 1883.653a1.292 1.292 0 01-1.292-1.292v-30.75a1.292 1.292 0 011.292-1.292 1.292 1.292 0 011.292 1.292v30.75a1.292 1.292 0 01-1.292 1.292z" fill="#1c83d1"/><path data-name="線 988" d="M472.625 1854.813a1.292 1.292 0 01-1.287-1.2l-1.637-22.469a1.292 1.292 0 011.194-1.382 1.292 1.292 0 011.382 1.194l1.638 22.471a1.292 1.292 0 01-1.195 1.383 1.483 1.483 0 01-.095.003z" fill="#1c83d1"/><path data-name="線 989" d="M491.368 1854.813h-.1a1.292 1.292 0 01-1.189-1.387l1.73-22.476a1.292 1.292 0 011.387-1.188 1.292 1.292 0 011.189 1.388l-1.729 22.47a1.292 1.292 0 01-1.288 1.193z" fill="#1c83d1"/></g></g></g></g></svg>