<svg xmlns="http://www.w3.org/2000/svg" width="287" height="87"><defs><clipPath id="a"><path data-name="長方形 23022" transform="translate(1073 1797)" fill="#ccc" d="M0 0h287v87H0z"/></clipPath></defs><g data-name="マスクグループ 72" transform="translate(-1073 -1797)" clip-path="url(#a)"><g data-name="グループ 9502"><g data-name="グループ 9476"><g data-name="グループ 9473"><g data-name="グループ 9472"><path data-name="パス 7536" d="M1196.374 1875.813a1.288 1.288 0 01-.913-.378l-15.087-15.087a1.292 1.292 0 01-.378-.876l-.678-23.478a1.292 1.292 0 011.291-1.329 8.362 8.362 0 015.046 1.388 7.448 7.448 0 012.844 5.321c.587 4.191 1.433 10.365 1.441 10.427a1.292 1.292 0 11-2.56.351c-.008-.062-.854-6.234-1.44-10.421v-.007c-.361-2.683-1.579-4.05-4-4.389l.622 21.55 14.724 14.724a1.292 1.292 0 01-.913 2.205z" fill="#1c83d1"/><path data-name="パス 7537" d="M1208.072 1876.999a1.317 1.317 0 01-.148-.008 1.292 1.292 0 01-1.137-1.43c.712-6.249-.06-9.7-2.753-12.319l-.013-.013a11.2 11.2 0 00-6.877-3.8 1.292 1.292 0 01-.666-.354l-.846-.846-3.646-3.646a3.069 3.069 0 00-1.683-.873 3.446 3.446 0 00-2.46.788l8.513 8.513a1.292 1.292 0 01-1.827 1.827l-9.493-9.493a1.292 1.292 0 010-1.827c1.824-1.824 3.71-2.621 5.607-2.369a5.614 5.614 0 013.17 1.607l3.646 3.646.571.571a14.083 14.083 0 014.15 1.473 16.8 16.8 0 013.662 2.949c3.3 3.209 4.317 7.4 3.513 14.458a1.292 1.292 0 01-1.283 1.146z" fill="#1c83d1"/><path data-name="パス 7538" d="M1211.63 1882.149v-7.035h-20.172v7.035" fill="#f8f8f8"/><path data-name="パス 7538 - アウトライン" d="M1211.63 1883.441a1.292 1.292 0 01-1.292-1.292v-5.743h-17.588v5.743a1.292 1.292 0 01-2.584 0v-7.035a1.292 1.292 0 011.292-1.292h20.172a1.292 1.292 0 011.292 1.292v7.035a1.292 1.292 0 01-1.292 1.292z" fill="#1c83d1"/></g><path data-name="パス 7539" d="M1207.139 1879.945a1.271 1.271 0 11-1.271-1.271 1.2 1.2 0 011.271 1.271z" fill="#1c83d1"/></g><g data-name="グループ 9475"><g data-name="グループ 9474"><path data-name="パス 7540" d="M1235.955 1875.813a1.292 1.292 0 01-.913-2.205l14.724-14.724.622-21.55c-2.419.339-3.638 1.706-4 4.389v.007a4320.596 4320.596 0 00-1.44 10.421 1.292 1.292 0 11-2.56-.351c.008-.062.854-6.235 1.441-10.426a7.449 7.449 0 012.845-5.322 8.362 8.362 0 015.046-1.388 1.292 1.292 0 011.291 1.329l-.678 23.478a1.292 1.292 0 01-.378.876l-15.087 15.087a1.288 1.288 0 01-.913.379z" fill="#1c83d1"/><path data-name="パス 7541" d="M1224.257 1876.999a1.292 1.292 0 01-1.282-1.146c-.8-7.059.214-11.249 3.513-14.458a16.8 16.8 0 013.662-2.949 14.085 14.085 0 014.15-1.473l4.217-4.217a5.613 5.613 0 013.17-1.607c1.9-.252 3.783.545 5.607 2.37a1.292 1.292 0 010 1.827l-9.49 9.493a1.292 1.292 0 01-1.827-1.827l8.51-8.513a3.444 3.444 0 00-2.46-.788 3.069 3.069 0 00-1.683.872l-4.492 4.492a1.292 1.292 0 01-.666.354 11.2 11.2 0 00-6.877 3.8l-.013.013c-2.693 2.616-3.465 6.07-2.753 12.319a1.292 1.292 0 01-1.137 1.43 1.316 1.316 0 01-.149.008z" fill="#1c83d1"/><path data-name="パス 7542" d="M1220.699 1882.149v-7.035h20.172v7.035" fill="#f8f8f8"/><path data-name="パス 7542 - アウトライン" d="M1240.871 1883.441a1.292 1.292 0 01-1.292-1.292v-5.743h-17.588v5.743a1.292 1.292 0 01-2.584 0v-7.035a1.292 1.292 0 011.292-1.292h20.172a1.292 1.292 0 011.292 1.292v7.035a1.292 1.292 0 01-1.292 1.292z" fill="#1c83d1"/></g><path data-name="パス 7543" d="M1225.276 1879.945a1.271 1.271 0 101.271-1.271 1.2 1.2 0 00-1.271 1.271z" fill="#1c83d1"/></g></g><g data-name="グループ 9489"><g data-name="グループ 9482"><g data-name="グループ 9481"><g data-name="グループ 9478"><g data-name="グループ 9477"><path data-name="パス 7544" d="M1203.749 1814.006a3.9 3.9 0 10-3.9-3.9 3.944 3.944 0 003.9 3.9z" fill="#fff"/><path data-name="パス 7544 - アウトライン" d="M1203.749 1815.296a5.235 5.235 0 113.658-1.533 5.148 5.148 0 01-3.658 1.533zm0-7.8a2.607 2.607 0 102.607 2.607 2.642 2.642 0 00-2.607-2.605z" fill="#1c83d1"/></g></g><g data-name="グループ 9480"><g data-name="グループ 9479"><path data-name="パス 7545" d="M1198.069 1816.695h10.392a5.906 5.906 0 013.75 1.635 5.25 5.25 0 011.728 3.809v.27l-.846 11.173c-.1 1.743-1.562 3.1-3.973 3.724l-1.026 14.049a2.427 2.427 0 01-2.397 2.332h-4.407a2.465 2.465 0 01-2.381-2.211q-.006-.044-.01-.089l-1.026-14.046c-1.964-.433-3.946-1.6-4.061-3.767l-.846-11.342v-.1a5.5 5.5 0 011.5-3.789 5.175 5.175 0 013.556-1.655zm10.312 2.584h-10.282a2.812 2.812 0 00-2.552 2.817l.844 11.305v.035c.041.855 1.588 1.355 2.6 1.482h.094a1.292 1.292 0 011.288 1.2l1.095 14.991h4.048l1.095-14.991a1.292 1.292 0 011.288-1.2h.052c1.263-.242 2.523-.819 2.557-1.485v-.033l.844-11.139v-.121a3.2 3.2 0 00-2.971-2.861z" fill="#1c83d1"/></g></g></g></g><g data-name="グループ 9488"><g data-name="グループ 9487"><g data-name="グループ 9484"><g data-name="グループ 9483"><path data-name="パス 7546" d="M1229.6 1814.006a3.9 3.9 0 10-3.9-3.9 3.944 3.944 0 003.9 3.9z" fill="#fff"/><path data-name="パス 7546 - アウトライン" d="M1229.6 1815.296a5.235 5.235 0 113.658-1.533 5.148 5.148 0 01-3.658 1.533zm0-7.8a2.607 2.607 0 102.607 2.607 2.642 2.642 0 00-2.607-2.605z" fill="#1c83d1"/></g></g><g data-name="グループ 9486"><g data-name="グループ 9485"><path data-name="パス 7547" d="M1223.92 1817.204h10.392a5.906 5.906 0 013.75 1.635 5.25 5.25 0 011.728 3.809v.27l-.846 11.174c-.1 1.743-1.562 3.1-3.973 3.724l-1.026 14.049a2.427 2.427 0 01-2.393 2.337h-4.407a2.465 2.465 0 01-2.381-2.211l-.01-.088-1.026-14.046c-1.964-.433-3.946-1.6-4.061-3.767l-.846-11.342v-.1a5.5 5.5 0 011.49-3.751 5.228 5.228 0 013.562-1.693zm10.312 2.584h-10.282a2.887 2.887 0 00-2.552 2.818l.844 11.3v.035c.041.855 1.588 1.356 2.6 1.482h.094a1.292 1.292 0 011.288 1.2l1.095 14.991h4.048l1.095-14.991a1.292 1.292 0 011.288-1.2h.056c1.263-.242 2.523-.818 2.557-1.485v-.033l.844-11.139v-.121a3.2 3.2 0 00-2.975-2.857z" fill="#1c83d1"/></g></g></g></g></g><g data-name="グループ 9495"><g data-name="グループ 9494"><g data-name="グループ 9491"><g data-name="グループ 9490" fill="#f8f8f8"><path data-name="パス 7548" d="M1216.717 1821.465a3.9 3.9 0 10-3.9-3.9 3.836 3.836 0 003.9 3.9z"/><path data-name="パス 7548 - アウトライン" d="M1216.717 1825.338a7.692 7.692 0 01-7.774-7.774 7.774 7.774 0 117.774 7.774z"/></g></g><g data-name="グループ 9493"><g data-name="グループ 9492" fill="#f8f8f8"><path data-name="パス 7549" d="M1207.138 1829.599l.847 11.358c.085 1.78 2.289 2.543 3.814 2.712h.169l1.1 15.087a1.184 1.184 0 001.1 1.1h4.407a1.122 1.122 0 001.1-1.1l1.1-15.087h.17c1.441-.254 3.645-1.017 3.729-2.712l.847-11.188v-.17a4.478 4.478 0 00-4.238-4.153h-10.331a4.163 4.163 0 00-3.814 4.153z"/><path data-name="パス 7549 - アウトライン" d="M1210.952 1821.571h10.341a8.372 8.372 0 018.113 8.029l-.859 11.65c-.114 2.3-1.623 4.239-4.093 5.374l-.907 12.414a4.916 4.916 0 01-4.967 4.7h-4.407a5.027 5.027 0 01-4.938-4.43l-.932-12.658a6.269 6.269 0 01-4.188-5.5l-.841-11.254a8.084 8.084 0 017.517-8.314q.08-.011.161-.011zm9.937 18.174l.777-10.268-10.465-.151.588 10.266c1.9.263 3.91 1.937 4.046 3.8l.545 7.458.54-7.458a3.875 3.875 0 013.865-3.593z"/></g></g></g></g><g data-name="グループ 9501"><g data-name="グループ 9500"><g data-name="グループ 9497"><g data-name="グループ 9496"><path data-name="パス 7550" d="M1216.717 1822.755a5.235 5.235 0 113.657-1.533 5.135 5.135 0 01-3.657 1.533zm0-7.8a2.642 2.642 0 00-2.607 2.607 2.55 2.55 0 002.607 2.607 2.607 2.607 0 000-5.214z" fill="#1c83d1"/></g></g><g data-name="グループ 9499"><g data-name="グループ 9498"><path data-name="パス 7551" d="M1210.952 1824.154h10.392a5.906 5.906 0 013.75 1.635 5.251 5.251 0 011.728 3.809v.27l-.846 11.173c-.1 1.743-1.562 3.1-3.973 3.724l-1.026 14.049a2.427 2.427 0 01-2.393 2.337h-4.407a2.465 2.465 0 01-2.381-2.211l-.01-.088-1.026-14.046c-1.964-.433-3.946-1.6-4.061-3.767l-.846-11.342v-.1a5.5 5.5 0 011.49-3.751 5.228 5.228 0 013.562-1.693zm10.312 2.584h-10.282a2.887 2.887 0 00-2.552 2.818l.844 11.3v.035c.041.855 1.588 1.356 2.6 1.482h.094a1.292 1.292 0 011.288 1.2l1.095 14.991h4.048l1.095-14.991a1.292 1.292 0 011.288-1.2h.052c1.263-.242 2.523-.818 2.557-1.485v-.033l.844-11.139v-.121a3.2 3.2 0 00-2.971-2.857z" fill="#1c83d1"/></g></g></g></g></g></g></svg>