<svg xmlns="http://www.w3.org/2000/svg" width="287" height="87"><defs><clipPath id="a"><path data-name="長方形 23021" transform="translate(696 1797)" fill="#ccc" d="M0 0h287v87H0z"/></clipPath></defs><g data-name="マスクグループ 71" transform="translate(-696 -1797)" clip-path="url(#a)"><g data-name="グループ 9113" transform="translate(813.576 1808.511)"><path data-name="パス 6971" d="M11.827 33.771a1.292 1.292 0 01-.812-2.3l15.466-12.464a1.292 1.292 0 011.385-.151l14 6.955L60.405 7.184a1.292 1.292 0 011.831 1.823l-19.2 19.287a1.292 1.292 0 01-1.49.246l-14.089-7-14.822 11.945a1.287 1.287 0 01-.808.286z" fill="#1c83d1"/><ellipse data-name="楕円形 354" cx="4.549" cy="4.731" rx="4.549" ry="4.731" transform="translate(7.278 27.748)" fill="#f8f8f8"/><path data-name="楕円形 354 - アウトライン" d="M11.827 26.456a5.94 5.94 0 015.841 6.023 5.94 5.94 0 01-5.841 6.023 5.94 5.94 0 01-5.841-6.023 5.94 5.94 0 015.841-6.023zm0 9.462a3.355 3.355 0 003.257-3.439 3.355 3.355 0 00-3.257-3.439 3.355 3.355 0 00-3.257 3.439 3.355 3.355 0 003.257 3.439z" fill="#1c83d1"/><path data-name="パス 6972" d="M31.571 20.015a4.663 4.663 0 01-4.549 4.731 4.6 4.6 0 01-4.549-4.731 4.552 4.552 0 119.1 0z" fill="#f8f8f8"/><path data-name="パス 6972 - アウトライン" d="M27.02 13.992a5.721 5.721 0 014.121 1.767 6.127 6.127 0 010 8.512 5.73 5.73 0 01-8.283-.006 6.171 6.171 0 01.04-8.505 5.72 5.72 0 014.122-1.768zm0 9.462a3.444 3.444 0 10-3.257-3.439 3.316 3.316 0 003.257 3.439z" fill="#1c83d1"/><path data-name="パス 6973" d="M46.674 27.384a4.662 4.662 0 01-4.549 4.731 4.6 4.6 0 01-4.549-4.731 4.552 4.552 0 119.1 0z" fill="#f8f8f8"/><path data-name="パス 6973 - アウトライン" d="M42.123 21.361a5.7 5.7 0 014.167 1.814 6.129 6.129 0 01-.046 8.465 5.73 5.73 0 01-8.283-.006 6.171 6.171 0 01.04-8.505 5.72 5.72 0 014.121-1.767zm0 9.462a3.355 3.355 0 003.257-3.439 3.521 3.521 0 00-.965-2.432 3.139 3.139 0 00-2.292-1.007 3.355 3.355 0 00-3.257 3.439 3.316 3.316 0 003.257 3.439z" fill="#1c83d1"/><path data-name="長方形 23040" d="M7.733 42.923h8.188a1.292 1.292 0 011.292 1.292V59.59a1.292 1.292 0 01-1.292 1.292H7.733a1.292 1.292 0 01-1.292-1.292V44.215a1.292 1.292 0 011.292-1.292zm6.9 2.584h-5.6v12.791h5.6z" fill="#1c83d1"/><path data-name="長方形 23041" d="M38.028 37.828h8.188a1.292 1.292 0 011.292 1.292v20.47a1.292 1.292 0 01-1.292 1.292h-8.188a1.292 1.292 0 01-1.292-1.292V39.12a1.292 1.292 0 011.292-1.292zm6.9 2.584h-5.6v17.886h5.6z" fill="#1c83d1"/><path data-name="長方形 23042" d="M22.835 30.459h8.188a1.292 1.292 0 011.292 1.292V59.59a1.292 1.292 0 01-1.292 1.292h-8.188a1.292 1.292 0 01-1.292-1.292V31.751a1.292 1.292 0 011.292-1.292zm6.9 2.584h-5.6v25.255h5.6z" fill="#1c83d1"/><path data-name="長方形 23043" d="M53.222 22.726h8.188a1.292 1.292 0 011.292 1.292v35.663a1.292 1.292 0 01-1.292 1.292h-8.188a1.292 1.292 0 01-1.292-1.292V24.018a1.292 1.292 0 011.292-1.292zm6.9 2.584h-5.6v33.079h5.6z" fill="#1c83d1"/><path data-name="パス 6974" d="M66.686 67.978H0a1.292 1.292 0 01-1.292-1.292V0a1.292 1.292 0 012.584 0v65.394h65.394a1.292 1.292 0 110 2.584z" fill="#1c83d1"/><path data-name="パス 6975" d="M61.322 17.395a1.292 1.292 0 01-1.292-1.292V9.298h-6.808a1.292 1.292 0 110-2.584h8.1a1.292 1.292 0 011.292 1.292v8.1a1.292 1.292 0 01-1.292 1.289z" fill="#1c83d1"/></g></g></svg>