<svg xmlns="http://www.w3.org/2000/svg" xmlns:xlink="http://www.w3.org/1999/xlink" width="57" height="57" viewBox="0 0 57 57">
  <defs>
    <clipPath id="clip-path">
      <rect id="長方形_23270" data-name="長方形 23270" width="57" height="57" transform="translate(679 2212)" fill="#fff" stroke="#707070" stroke-width="1"/>
    </clipPath>
  </defs>
  <g id="マスクグループ_75" data-name="マスクグループ 75" transform="translate(-679 -2212)" clip-path="url(#clip-path)">
    <g id="グループ_10693" data-name="グループ 10693" transform="translate(678.578 2222.783)">
      <g id="グループ_9959" data-name="グループ 9959" transform="translate(6.629 15.751)">
        <path id="パス_8111" data-name="パス 8111" d="M507.541,289.588a8.36,8.36,0,0,0-3.019-2.822,5.013,5.013,0,0,1-.722-.525l1.116-1.641a6.836,6.836,0,0,1,.722.525,11.09,11.09,0,0,1,3.61,3.413Z" transform="translate(-503.8 -284.6)" fill="#1c1d1d"/>
      </g>
      <g id="グループ_9960" data-name="グループ 9960" transform="translate(22.372 32.091)">
        <path id="パス_8112" data-name="パス 8112" d="M532.718,313.83a1.819,1.819,0,0,1-.591-.066,14.062,14.062,0,0,1-3.938-2.3.985.985,0,0,1,1.182-1.575,10.654,10.654,0,0,0,3.281,1.969c.263.066.984-.459,1.116-.788a.987.987,0,0,1,.066-1.247.954.954,0,0,1,1.378-.066,1.776,1.776,0,0,1,.263,2.3A3.294,3.294,0,0,1,532.718,313.83Zm1.247-2.625Z" transform="translate(-527.787 -309.497)" fill="#1c1d1d"/>
      </g>
      <g id="グループ_9961" data-name="グループ 9961" transform="translate(26.107 29.958)">
        <path id="パス_8113" data-name="パス 8113" d="M538.415,311.27a2.7,2.7,0,0,1-1.641-.525,32.994,32.994,0,0,1-2.953-2.363.979.979,0,1,1,1.247-1.51c1.116.919,2.034,1.706,2.888,2.3a1.106,1.106,0,0,0,1.378-.328c.2-.263.459-.591.131-.984a.979.979,0,1,1,1.509-1.247,2.586,2.586,0,0,1-.2,3.61A3.312,3.312,0,0,1,538.415,311.27Z" transform="translate(-533.48 -306.247)" fill="#1c1d1d"/>
      </g>
      <g id="グループ_9962" data-name="グループ 9962" transform="translate(28.516 26.613)">
        <path id="パス_8114" data-name="パス 8114" d="M542.63,306.893a2.629,2.629,0,0,1-1.51-.525c-.656-.591-2.232-1.969-3.675-3.413a.975.975,0,1,1,1.378-1.378c1.378,1.378,2.888,2.757,3.544,3.282.394.328.919-.263.984-.263a1.235,1.235,0,0,0,0-1.772.975.975,0,0,1,1.378-1.378,3.183,3.183,0,0,1,0,4.463A2.874,2.874,0,0,1,542.63,306.893Z" transform="translate(-537.15 -301.15)" fill="#1c1d1d"/>
      </g>
      <g id="グループ_9963" data-name="グループ 9963" transform="translate(26.67 12.034)">
        <path id="パス_8115" data-name="パス 8115" d="M544.485,296.567a1.9,1.9,0,0,1-1.509-.656,37.9,37.9,0,0,0-4.594-4.266A.992.992,0,0,1,539.5,290a33.8,33.8,0,0,1,4.922,4.528h.066a1.379,1.379,0,0,0,.788-.591,1.615,1.615,0,0,0,.2-1.706c-1.575-2.756-5.25-6.5-6.957-8.072-1.378-1.181-2.494-2.3-3.544-3.216l-.328-.328a.976.976,0,0,1,1.313-1.444l.328.328c.984.919,2.1,2.035,3.479,3.15a43.662,43.662,0,0,1,7.35,8.532,3.827,3.827,0,0,1-1.181,4.791A2.153,2.153,0,0,1,544.485,296.567Z" transform="translate(-534.337 -278.937)" fill="#1c1d1d"/>
      </g>
      <g id="グループ_9964" data-name="グループ 9964" transform="translate(12.929 4.397)">
        <path id="パス_8116" data-name="パス 8116" d="M522.719,273.075a18.381,18.381,0,0,0-2.953-.919,11.986,11.986,0,0,1-3.938-1.641c-.919-.656-2.428-1.51-2.428-1.51l.984-1.706c.066.066,1.575.919,2.625,1.641a9.073,9.073,0,0,0,3.281,1.313c.919.263,1.9.525,3.15.984Z" transform="translate(-513.4 -267.3)" fill="#1c1d1d"/>
      </g>
      <g id="グループ_9965" data-name="グループ 9965" transform="translate(7.924 17.616)">
        <path id="パス_8117" data-name="パス 8117" d="M508.744,296.471a2.629,2.629,0,0,1-1.706-.722,3.809,3.809,0,0,1-1.05-4h0c.525-1.378,4.2-3.807,5.513-4.2a2.814,2.814,0,0,1,3.15,1.247,2.855,2.855,0,0,1,0,3.347,20.33,20.33,0,0,1-5.054,4.135A2.021,2.021,0,0,1,508.744,296.471Zm-.919-4a2.074,2.074,0,0,0,.525,1.838,1.016,1.016,0,0,0,.394.2,18.164,18.164,0,0,0,4.331-3.544.9.9,0,0,0-.066-.984.764.764,0,0,0-.919-.394A11.1,11.1,0,0,0,507.825,292.468Zm0,0Z" transform="translate(-505.773 -287.442)" fill="#1c1d1d"/>
      </g>
      <g id="グループ_9966" data-name="グループ 9966" transform="translate(10.243 20.432)">
        <path id="パス_8118" data-name="パス 8118" d="M512.912,301.949a3.02,3.02,0,0,1-1.969-.919c-1.182-1.116-2.035-3.085-1.444-4.529l1.838.788a2.118,2.118,0,0,0,.459,1.641c.46.722.919,1.05,1.116,1.05a16.275,16.275,0,0,0,4.529-4.463,1.379,1.379,0,0,0-.525-1.181c-.394-.394-.919-.788-1.312-.591l-.722-1.838a3.686,3.686,0,0,1,4.266,4.594,17.788,17.788,0,0,1-5.513,5.316A2.793,2.793,0,0,1,512.912,301.949Z" transform="translate(-509.307 -291.733)" fill="#1c1d1d"/>
      </g>
      <g id="グループ_9967" data-name="グループ 9967" transform="translate(17.145 26.736)">
        <path id="パス_8119" data-name="パス 8119" d="M523.615,310.5a4.713,4.713,0,0,1-3.085-1.444,1.965,1.965,0,0,1-.459-2.428.977.977,0,0,1,1.313-.394.989.989,0,0,1,.459,1.247,1.767,1.767,0,0,0,.722.656,1.584,1.584,0,0,0,1.116.328,8.727,8.727,0,0,0,2.756-3.741,1.381,1.381,0,0,0-.459-.788,1.609,1.609,0,0,0-1.181-.591,1,1,0,0,1-.788-1.838,3.166,3.166,0,0,1,3.15.788,2.826,2.826,0,0,1,1.181,2.888c-.394,1.444-2.363,4.4-3.938,5.053A1.146,1.146,0,0,1,523.615,310.5Z" transform="translate(-519.823 -301.337)" fill="#1c1d1d"/>
      </g>
      <g id="グループ_9968" data-name="グループ 9968" transform="translate(13.398 23.843)">
        <path id="パス_8120" data-name="パス 8120" d="M517.78,307.083a3.5,3.5,0,0,1-2.231-1.05c-1.116-1.116-1.9-2.756-1.116-4.069a1,1,0,0,1,1.706,1.05,1.111,1.111,0,0,0,.2.919,3.14,3.14,0,0,0,1.378,1.247,16.346,16.346,0,0,0,4-4.922,1.463,1.463,0,0,0-.459-.853,1.427,1.427,0,0,0-1.05-.459,1,1,0,1,1-.788-1.838,3.12,3.12,0,0,1,3.216.788,2.785,2.785,0,0,1,1.05,2.953c-.591,1.772-3.413,4.922-4.791,5.907A1.833,1.833,0,0,1,517.78,307.083Z" transform="translate(-514.115 -296.93)" fill="#1c1d1d"/>
      </g>
      <g id="グループ_9969" data-name="グループ 9969" transform="translate(17.595 4.857)">
        <path id="パス_8121" data-name="パス 8121" d="M540.98,288.083h0a1.122,1.122,0,0,1-.853-.459,48.936,48.936,0,0,0-6.432-7.219c-1.444-1.247-2.56-2.3-3.61-3.281l-.131-.131c-.131-.131-.2-.131-.2-.131h-.262c-.394,0-1.313.919-1.969,1.641a14.053,14.053,0,0,1-2.756,2.428,2.924,2.924,0,0,1-3.478-.066c-.984-.919-1.05-2.559-.131-4.4.788-1.575,3.479-5.71,6.76-6.1a47.179,47.179,0,0,1,9.057-.262,3.078,3.078,0,0,0,2.231-.525c.984-.656,2.494-1.575,2.494-1.575l1.05,1.706s-1.51.984-2.494,1.575a5.04,5.04,0,0,1-3.741.788,42.166,42.166,0,0,0-8.4.263c-2.035.263-4.331,3.15-5.25,5.054-.591,1.181-.459,1.9-.262,2.1.131.131.591.131,1.116-.2a10.884,10.884,0,0,0,2.3-2.035c1.05-1.116,2.1-2.231,3.347-2.231a2.284,2.284,0,0,1,1.837.656l.131.131c.984.984,2.166,2.035,3.544,3.282a54.5,54.5,0,0,1,5.972,6.432c.525-.788.984-1.575,1.378-2.166a23.826,23.826,0,0,1,4-3.281l2.1-1.444,1.116,1.641-2.1,1.444a27.644,27.644,0,0,0-3.413,2.691c-.525.919-1.378,2.231-2.231,3.413A.93.93,0,0,1,540.98,288.083Z" transform="translate(-520.51 -268)" fill="#1c1d1d"/>
      </g>
      <path id="パス_8122" data-name="パス 8122" d="M509.451,265.166l-6.169-4.266L493.7,275.076l6.169,4.266Z" transform="translate(-493.7 -260.703)" fill="#1c1d1d"/>
      <path id="パス_8123" data-name="パス 8123" d="M549.8,264.866l6.1-4.266,9.582,14.176-6.1,4.266Z" transform="translate(-512.982 -260.6)" fill="#1c1d1d"/>
    </g>
  </g>
</svg>
