<svg xmlns="http://www.w3.org/2000/svg" xmlns:xlink="http://www.w3.org/1999/xlink" width="57" height="57" viewBox="0 0 57 57">
  <defs>
    <clipPath id="clip-path">
      <rect id="長方形_23272" data-name="長方形 23272" width="57" height="57" transform="translate(1059 2317)" fill="#fff" stroke="#707070" stroke-width="1"/>
    </clipPath>
  </defs>
  <g id="マスクグループ_78" data-name="マスクグループ 78" transform="translate(-1059 -2317)" clip-path="url(#clip-path)">
    <g id="グループ_10694" data-name="グループ 10694" transform="translate(1066.096 2328.507)">
      <g id="グループ_9648" data-name="グループ 9648" transform="translate(14.036 5.558)">
        <path id="パス_7806" data-name="パス 7806" d="M989.462,162.681a3.481,3.481,0,1,1-3.481-3.481A3.5,3.5,0,0,1,989.462,162.681Z" transform="translate(-979.019 -159.2)" fill="#1c1d1d"/>
        <path id="パス_7807" data-name="パス 7807" d="M990.224,182.876c0-2.751-.618-6.569-1.348-7.523-.674-.9-3.032-1.853-5.614-1.853s-4.941.954-5.615,1.853c-.73.954-1.347,4.772-1.347,7.523Z" transform="translate(-976.3 -165.471)" fill="#1c1d1d"/>
      </g>
      <g id="グループ_9649" data-name="グループ 9649" transform="translate(0 0)">
        <path id="パス_7808" data-name="パス 7808" d="M990.224,205.183a3.25,3.25,0,0,1-1.8-1.347,8.017,8.017,0,0,1-.73-4.435H976.019a8.591,8.591,0,0,1-.73,4.435,3.169,3.169,0,0,1-1.8,1.347c-.562.225-.449,1.179-.112,1.179h17.011C990.673,206.362,990.841,205.407,990.224,205.183Z" transform="translate(-960.86 -171.272)" fill="#1c1d1d"/>
        <path id="パス_7809" data-name="パス 7809" d="M992.453,149.3H952.2a.9.9,0,0,0-.9.954v26.668a.935.935,0,0,0,.9.954h40.255a.9.9,0,0,0,.9-.954V150.254A.935.935,0,0,0,992.453,149.3Zm-2.246,25.377H954.444V152.5h35.764Z" transform="translate(-951.3 -149.3)" fill="#1c1d1d"/>
      </g>
    </g>
  </g>
</svg>
