<svg xmlns="http://www.w3.org/2000/svg" xmlns:xlink="http://www.w3.org/1999/xlink" width="57" height="57" viewBox="0 0 57 57">
  <defs>
    <clipPath id="clip-path">
      <rect id="長方形_23269" data-name="長方形 23269" width="57" height="57" transform="translate(302 2212)" fill="#fff" stroke="#707070" stroke-width="1"/>
    </clipPath>
  </defs>
  <g id="マスクグループ_73" data-name="マスクグループ 73" transform="translate(-302 -2212)" clip-path="url(#clip-path)">
    <g id="グループ_10692" data-name="グループ 10692" transform="translate(314.046 2214.73)">
      <g id="グループ_9939" data-name="グループ 9939" transform="translate(4.669)">
        <g id="グループ_9934" data-name="グループ 9934" transform="translate(12.463)">
          <path id="パス_8069" data-name="パス 8069" d="M81.453,252.928a1.261,1.261,0,0,1-1.253-1.253v-3.521a1.261,1.261,0,0,1,1.253-1.253,1.3,1.3,0,0,1,1.253,1.253v3.521A1.224,1.224,0,0,1,81.453,252.928Z" transform="translate(-80.2 -246.9)" fill="#1c1d1d"/>
        </g>
        <g id="グループ_9935" data-name="グループ 9935" transform="translate(5.312 1.921)">
          <path id="パス_8070" data-name="パス 8070" d="M71.191,255.718a1.257,1.257,0,0,1-1.074-.657l-1.731-3.044a1.27,1.27,0,1,1,2.208-1.253l1.731,3.044a1.276,1.276,0,0,1-.477,1.731A1.36,1.36,0,0,1,71.191,255.718Z" transform="translate(-68.218 -250.118)" fill="#1c1d1d"/>
        </g>
        <g id="グループ_9936" data-name="グループ 9936" transform="translate(0 7.173)">
          <path id="パス_8071" data-name="パス 8071" d="M63.664,263.2a1.36,1.36,0,0,1-.657-.179l-3.044-1.731a1.27,1.27,0,0,1,1.253-2.208l3.044,1.731a1.276,1.276,0,0,1,.477,1.731A1.257,1.257,0,0,1,63.664,263.2Z" transform="translate(-59.318 -258.918)" fill="#1c1d1d"/>
        </g>
        <g id="グループ_9937" data-name="グループ 9937" transform="translate(17.845 1.921)">
          <path id="パス_8072" data-name="パス 8072" d="M90.52,255.717a1.36,1.36,0,0,1-.656-.179,1.276,1.276,0,0,1-.477-1.731l1.731-3.044a1.27,1.27,0,0,1,2.208,1.253l-1.731,3.044A1.257,1.257,0,0,1,90.52,255.717Z" transform="translate(-89.218 -250.118)" fill="#1c1d1d"/>
        </g>
        <g id="グループ_9938" data-name="グループ 9938" transform="translate(21.844 7.173)">
          <path id="パス_8073" data-name="パス 8073" d="M97.161,263.2a1.257,1.257,0,0,1-1.074-.656,1.276,1.276,0,0,1,.477-1.731l3.044-1.731a1.27,1.27,0,0,1,1.253,2.208l-3.044,1.731A1.361,1.361,0,0,1,97.161,263.2Z" transform="translate(-95.918 -258.918)" fill="#1c1d1d"/>
        </g>
      </g>
      <path id="パス_8074" data-name="パス 8074" d="M80,280.394H73.313a1.24,1.24,0,0,1-1.253-1.134,11.12,11.12,0,0,0-1.671-4.118,12.084,12.084,0,0,1-2.089-6.326,8.415,8.415,0,0,1,16.831,0c0,2.566-1.134,4.536-2.089,6.326a11.54,11.54,0,0,0-1.671,4.118A1.456,1.456,0,0,1,80,280.394Zm-5.61-2.566h4.6a15.156,15.156,0,0,1,1.79-4,10.4,10.4,0,0,0,1.79-5.073,5.849,5.849,0,1,0-11.7,0c0,1.91.9,3.4,1.791,5.073A26.921,26.921,0,0,1,74.388,277.827Z" transform="translate(-58.271 -252.343)" fill="#1c1d1d"/>
      <path id="パス_8075" data-name="パス 8075" d="M76.863,276.115c-.6,3.342-3.283,5.61-3.641,8.952h0v3.044a2.649,2.649,0,0,1-2.626,2.626H69.164a2.649,2.649,0,0,1-2.626-2.626v-3.044c-.418-3.641-3.581-6.028-3.76-9.967a14.5,14.5,0,0,0-8.415,13.071h0s0,.9.06,1.313a35.333,35.333,0,0,0-2.865,5.193,1.119,1.119,0,0,0,.9,1.492,9.41,9.41,0,0,0,1.91,0,18.954,18.954,0,0,0,.418,3.1,3.224,3.224,0,0,0,2.984,2.745,36.361,36.361,0,0,0,3.7-.418v6.207l17.01-2.268v-6.207a14.468,14.468,0,0,0,5.013-10.982A14.872,14.872,0,0,0,76.863,276.115Z" transform="translate(-51.495 -258.269)" fill="#1c1d1d"/>
      <path id="パス_8076" data-name="パス 8076" d="M79.912,297.877H78.479A3.872,3.872,0,0,1,74.6,294v-3.044a1.261,1.261,0,0,1,1.253-1.253h6.685a1.261,1.261,0,0,1,1.253,1.253V294A3.834,3.834,0,0,1,79.912,297.877Zm-2.805-5.67V294a1.351,1.351,0,0,0,1.373,1.373h1.432A1.351,1.351,0,0,0,81.284,294v-1.79Z" transform="translate(-60.81 -264.156)" fill="#1c1d1d"/>
    </g>
  </g>
</svg>
