<svg xmlns="http://www.w3.org/2000/svg" xmlns:xlink="http://www.w3.org/1999/xlink" width="287" height="87" viewBox="0 0 287 87">
  <defs>
    <clipPath id="clip-path">
      <rect id="長方形_23021" data-name="長方形 23021" width="287" height="87" transform="translate(696 1797)" fill="#ccc"/>
    </clipPath>
  </defs>
  <g id="マスクグループ_71" data-name="マスクグループ 71" transform="translate(-696 -1797)" clip-path="url(#clip-path)">
    <g id="グループ_9113" data-name="グループ 9113" transform="translate(813.576 1808.511)">
      <path id="パス_6971" data-name="パス 6971" d="M1568.7,205.574a1.292,1.292,0,0,1-.812-2.3l15.466-12.464a1.292,1.292,0,0,1,1.385-.151l14,6.955,18.539-18.627a1.292,1.292,0,0,1,1.831,1.823l-19.2,19.287a1.292,1.292,0,0,1-1.49.246l-14.089-7-14.822,11.945A1.287,1.287,0,0,1,1568.7,205.574Z" transform="translate(-1556.873 -171.803)" fill="#1c83d1"/>
      <ellipse id="楕円形_354" data-name="楕円形 354" cx="4.549" cy="4.731" rx="4.549" ry="4.731" transform="translate(7.278 27.748)" fill="#f8f8f8"/>
      <path id="楕円形_354_-_アウトライン" data-name="楕円形 354 - アウトライン" d="M4.549-1.292A5.94,5.94,0,0,1,10.39,4.731a5.94,5.94,0,0,1-5.841,6.023A5.94,5.94,0,0,1-1.292,4.731,5.94,5.94,0,0,1,4.549-1.292Zm0,9.462A3.355,3.355,0,0,0,7.806,4.731,3.355,3.355,0,0,0,4.549,1.292,3.355,3.355,0,0,0,1.292,4.731,3.355,3.355,0,0,0,4.549,8.17Z" transform="translate(7.278 27.748)" fill="#1c83d1"/>
      <path id="パス_6972" data-name="パス 6972" d="M1589.5,192.531a4.663,4.663,0,0,1-4.549,4.731,4.6,4.6,0,0,1-4.549-4.731,4.552,4.552,0,1,1,9.1,0Z" transform="translate(-1557.929 -172.516)" fill="#f8f8f8"/>
      <path id="パス_6972_-_アウトライン" data-name="パス 6972 - アウトライン" d="M1584.949,186.508a5.721,5.721,0,0,1,4.121,1.767,6.127,6.127,0,0,1,0,8.512,5.73,5.73,0,0,1-8.283-.006,6.171,6.171,0,0,1,.04-8.505A5.72,5.72,0,0,1,1584.949,186.508Zm0,9.462a3.444,3.444,0,1,0-3.257-3.439A3.316,3.316,0,0,0,1584.949,195.97Z" transform="translate(-1557.929 -172.516)" fill="#1c83d1"/>
      <path id="パス_6973" data-name="パス 6973" d="M1606.1,200.631a4.662,4.662,0,0,1-4.549,4.731,4.6,4.6,0,0,1-4.549-4.731,4.552,4.552,0,1,1,9.1,0Z" transform="translate(-1559.426 -173.247)" fill="#f8f8f8"/>
      <path id="パス_6973_-_アウトライン" data-name="パス 6973 - アウトライン" d="M1601.549,194.608h0a5.7,5.7,0,0,1,4.167,1.814,6.129,6.129,0,0,1-.046,8.465,5.73,5.73,0,0,1-8.283-.006,6.171,6.171,0,0,1,.04-8.505,5.72,5.72,0,0,1,4.121-1.767Zm0,9.462a3.355,3.355,0,0,0,3.257-3.439,3.521,3.521,0,0,0-.965-2.432,3.139,3.139,0,0,0-2.292-1.007h0a3.355,3.355,0,0,0-3.257,3.439A3.316,3.316,0,0,0,1601.549,204.07Z" transform="translate(-1559.426 -173.247)" fill="#1c83d1"/>
      <path id="長方形_23040" data-name="長方形 23040" d="M0-1.292H8.188A1.292,1.292,0,0,1,9.48,0V15.375a1.292,1.292,0,0,1-1.292,1.292H0a1.292,1.292,0,0,1-1.292-1.292V0A1.292,1.292,0,0,1,0-1.292ZM6.9,1.292h-5.6V14.083H6.9Z" transform="translate(7.733 44.215)" fill="#1c83d1"/>
      <path id="長方形_23041" data-name="長方形 23041" d="M0-1.292H8.188A1.292,1.292,0,0,1,9.48,0V20.47a1.292,1.292,0,0,1-1.292,1.292H0A1.292,1.292,0,0,1-1.292,20.47V0A1.292,1.292,0,0,1,0-1.292ZM6.9,1.292h-5.6V19.178H6.9Z" transform="translate(38.028 39.12)" fill="#1c83d1"/>
      <path id="長方形_23042" data-name="長方形 23042" d="M0-1.292H8.188A1.292,1.292,0,0,1,9.48,0V27.839a1.292,1.292,0,0,1-1.292,1.292H0a1.292,1.292,0,0,1-1.292-1.292V0A1.292,1.292,0,0,1,0-1.292ZM6.9,1.292h-5.6V26.547H6.9Z" transform="translate(22.835 31.751)" fill="#1c83d1"/>
      <path id="長方形_23043" data-name="長方形 23043" d="M0-1.292H8.188A1.292,1.292,0,0,1,9.48,0V35.663a1.292,1.292,0,0,1-1.292,1.292H0a1.292,1.292,0,0,1-1.292-1.292V0A1.292,1.292,0,0,1,0-1.292ZM6.9,1.292h-5.6V34.371H6.9Z" transform="translate(53.222 24.018)" fill="#1c83d1"/>
      <path id="パス_6974" data-name="パス 6974" d="M1622.386,238.978H1555.7a1.292,1.292,0,0,1-1.292-1.292V171a1.292,1.292,0,0,1,2.584,0v65.394h65.394a1.292,1.292,0,1,1,0,2.584Z" transform="translate(-1555.7 -171)" fill="#1c83d1"/>
      <path id="パス_6975" data-name="パス 6975" d="M1622.3,189.189a1.292,1.292,0,0,1-1.292-1.292v-6.805H1614.2a1.292,1.292,0,1,1,0-2.584h8.1a1.292,1.292,0,0,1,1.292,1.292v8.1A1.292,1.292,0,0,1,1622.3,189.189Z" transform="translate(-1560.978 -171.794)" fill="#1c83d1"/>
    </g>
  </g>
</svg>
