<svg xmlns="http://www.w3.org/2000/svg" xmlns:xlink="http://www.w3.org/1999/xlink" width="287" height="87" viewBox="0 0 287 87">
  <defs>
    <clipPath id="clip-path">
      <rect id="長方形_23022" data-name="長方形 23022" width="287" height="87" transform="translate(1073 1797)" fill="#ccc"/>
    </clipPath>
  </defs>
  <g id="マスクグループ_72" data-name="マスクグループ 72" transform="translate(-1073 -1797)" clip-path="url(#clip-path)">
    <g id="グループ_9502" data-name="グループ 9502" transform="translate(1180.609 1806.206)">
      <g id="グループ_9476" data-name="グループ 9476" transform="translate(0 29.75)">
        <g id="グループ_9473" data-name="グループ 9473">
          <g id="グループ_9472" data-name="グループ 9472">
            <path id="パス_7536" data-name="パス 7536" d="M754.465,627.357a1.288,1.288,0,0,1-.913-.378l-15.087-15.087a1.292,1.292,0,0,1-.378-.876l-.678-23.478a1.292,1.292,0,0,1,1.291-1.329,8.362,8.362,0,0,1,5.046,1.388,7.448,7.448,0,0,1,2.844,5.321c.587,4.191,1.433,10.365,1.441,10.427a1.292,1.292,0,1,1-2.56.351c-.008-.062-.854-6.234-1.44-10.421v-.007c-.361-2.683-1.579-4.05-4-4.389l.622,21.55,14.724,14.724a1.292,1.292,0,0,1-.913,2.205Z" transform="translate(-738.7 -587.5)" fill="#1c83d1"/>
            <path id="パス_7537" data-name="パス 7537" d="M767.123,631.5a1.317,1.317,0,0,1-.148-.008,1.292,1.292,0,0,1-1.137-1.43c.712-6.249-.06-9.7-2.753-12.319l-.013-.013a11.2,11.2,0,0,0-6.877-3.8,1.292,1.292,0,0,1-.666-.354l-.846-.846-3.646-3.646a3.069,3.069,0,0,0-1.683-.873,3.446,3.446,0,0,0-2.46.788l8.513,8.513a1.292,1.292,0,0,1-1.827,1.827l-9.493-9.493a1.292,1.292,0,0,1,0-1.827c1.824-1.824,3.71-2.621,5.607-2.369a5.614,5.614,0,0,1,3.17,1.607l3.646,3.646.571.571a14.083,14.083,0,0,1,4.15,1.473,16.8,16.8,0,0,1,3.662,2.949c3.3,3.209,4.317,7.4,3.513,14.458A1.292,1.292,0,0,1,767.123,631.5Z" transform="translate(-739.66 -590.457)" fill="#1c83d1"/>
            <path id="パス_7538" data-name="パス 7538" d="M771.672,640.735V633.7H751.5v7.035" transform="translate(-740.651 -594.542)" fill="#f8f8f8"/>
            <path id="パス_7538_-_アウトライン" data-name="パス 7538 - アウトライン" d="M771.672,642.027a1.292,1.292,0,0,1-1.292-1.292v-5.743H752.792v5.743a1.292,1.292,0,0,1-2.584,0V633.7a1.292,1.292,0,0,1,1.292-1.292h20.172a1.292,1.292,0,0,1,1.292,1.292v7.035A1.292,1.292,0,0,1,771.672,642.027Z" transform="translate(-740.651 -594.542)" fill="#1c83d1"/>
          </g>
          <path id="パス_7539" data-name="パス 7539" d="M769.543,639.17a1.271,1.271,0,1,1-1.271-1.271A1.2,1.2,0,0,1,769.543,639.17Z" transform="translate(-743.013 -595.181)" fill="#1c83d1"/>
        </g>
        <g id="グループ_9475" data-name="グループ 9475" transform="translate(40.09)">
          <g id="グループ_9474" data-name="グループ 9474">
            <path id="パス_7540" data-name="パス 7540" d="M804,627.357a1.292,1.292,0,0,1-.913-2.205l14.724-14.724.622-21.55c-2.419.339-3.638,1.706-4,4.389v.007c-.586,4.188-1.432,10.359-1.44,10.421a1.292,1.292,0,1,1-2.56-.351c.008-.062.854-6.235,1.441-10.426a7.449,7.449,0,0,1,2.845-5.322,8.362,8.362,0,0,1,5.046-1.388,1.292,1.292,0,0,1,1.291,1.329l-.678,23.478a1.292,1.292,0,0,1-.378.876l-15.087,15.087A1.288,1.288,0,0,1,804,627.357Z" transform="translate(-788.744 -587.5)" fill="#1c83d1"/>
            <path id="パス_7541" data-name="パス 7541" d="M790.153,631.5a1.292,1.292,0,0,1-1.282-1.146c-.8-7.059.214-11.249,3.513-14.458a16.8,16.8,0,0,1,3.662-2.949,14.085,14.085,0,0,1,4.15-1.473l4.217-4.217a5.613,5.613,0,0,1,3.17-1.607c1.9-.252,3.783.545,5.607,2.37a1.292,1.292,0,0,1,0,1.827L803.7,619.34a1.292,1.292,0,0,1-1.827-1.827L810.383,609a3.444,3.444,0,0,0-2.46-.788,3.069,3.069,0,0,0-1.683.872l-4.492,4.492a1.292,1.292,0,0,1-.666.354,11.2,11.2,0,0,0-6.877,3.8l-.013.013c-2.693,2.616-3.465,6.07-2.753,12.319a1.292,1.292,0,0,1-1.137,1.43A1.316,1.316,0,0,1,790.153,631.5Z" transform="translate(-786.595 -590.457)" fill="#1c83d1"/>
            <path id="パス_7542" data-name="パス 7542" d="M786,640.735V633.7h20.172v7.035" transform="translate(-786 -594.542)" fill="#f8f8f8"/>
            <path id="パス_7542_-_アウトライン" data-name="パス 7542 - アウトライン" d="M806.172,642.027a1.292,1.292,0,0,1-1.292-1.292v-5.743H787.292v5.743a1.292,1.292,0,0,1-2.584,0V633.7A1.292,1.292,0,0,1,786,632.408h20.172a1.292,1.292,0,0,1,1.292,1.292v7.035A1.292,1.292,0,0,1,806.172,642.027Z" transform="translate(-786 -594.542)" fill="#1c83d1"/>
          </g>
          <path id="パス_7543" data-name="パス 7543" d="M791.4,639.17a1.271,1.271,0,1,0,1.271-1.271A1.2,1.2,0,0,0,791.4,639.17Z" transform="translate(-786.823 -595.181)" fill="#1c83d1"/>
        </g>
      </g>
      <g id="グループ_9489" data-name="グループ 9489" transform="translate(13.646)">
        <g id="グループ_9482" data-name="グループ 9482">
          <g id="グループ_9481" data-name="グループ 9481">
            <g id="グループ_9478" data-name="グループ 9478" transform="translate(5.594)">
              <g id="グループ_9477" data-name="グループ 9477">
                <path id="パス_7544" data-name="パス 7544" d="M765.3,560.2a3.9,3.9,0,1,0-3.9-3.9A3.944,3.944,0,0,0,765.3,560.2Z" transform="translate(-761.4 -552.4)" fill="#fff"/>
                <path id="パス_7544_-_アウトライン" data-name="パス 7544 - アウトライン" d="M765.3,561.49a5.235,5.235,0,1,1,3.658-1.533A5.148,5.148,0,0,1,765.3,561.49Zm0-7.8a2.607,2.607,0,1,0,2.607,2.607A2.642,2.642,0,0,0,765.3,553.692Z" transform="translate(-761.4 -552.4)" fill="#1c83d1"/>
              </g>
            </g>
            <g id="グループ_9480" data-name="グループ 9480" transform="translate(0 11.781)">
              <g id="グループ_9479" data-name="グループ 9479">
                <path id="パス_7545" data-name="パス 7545" d="M758.614,565.008h10.392a5.906,5.906,0,0,1,3.75,1.635,5.25,5.25,0,0,1,1.728,3.809v.17c0,.033,0,.065,0,.1l-.846,11.173c-.1,1.743-1.562,3.1-3.973,3.724l-1.026,14.049A2.427,2.427,0,0,1,766.242,602h-4.407a2.465,2.465,0,0,1-2.381-2.211q-.006-.044-.01-.089l-1.026-14.046c-1.964-.433-3.946-1.6-4.061-3.767l-.846-11.342q0-.048,0-.1a5.5,5.5,0,0,1,1.5-3.789,5.175,5.175,0,0,1,3.556-1.655Zm10.312,2.584H758.644a2.812,2.812,0,0,0-2.552,2.817l.844,11.305q0,.017,0,.035c.041.855,1.588,1.355,2.6,1.482h.094a1.292,1.292,0,0,1,1.288,1.2l1.095,14.991h4.048l1.095-14.991a1.292,1.292,0,0,1,1.288-1.2h.052c1.263-.242,2.523-.819,2.557-1.485,0-.011,0-.022,0-.033l.844-11.139v-.121A3.2,3.2,0,0,0,768.926,567.592Z" transform="translate(-754.8 -566.3)" fill="#1c83d1"/>
              </g>
            </g>
          </g>
        </g>
        <g id="グループ_9488" data-name="グループ 9488" transform="translate(25.851)">
          <g id="グループ_9487" data-name="グループ 9487">
            <g id="グループ_9484" data-name="グループ 9484" transform="translate(5.594)">
              <g id="グループ_9483" data-name="グループ 9483">
                <path id="パス_7546" data-name="パス 7546" d="M795.8,560.2a3.9,3.9,0,1,0-3.9-3.9A3.944,3.944,0,0,0,795.8,560.2Z" transform="translate(-791.9 -552.4)" fill="#fff"/>
                <path id="パス_7546_-_アウトライン" data-name="パス 7546 - アウトライン" d="M795.8,561.49a5.235,5.235,0,1,1,3.658-1.533A5.148,5.148,0,0,1,795.8,561.49Zm0-7.8a2.607,2.607,0,1,0,2.607,2.607A2.642,2.642,0,0,0,795.8,553.692Z" transform="translate(-791.9 -552.4)" fill="#1c83d1"/>
              </g>
            </g>
            <g id="グループ_9486" data-name="グループ 9486" transform="translate(0 12.29)">
              <g id="グループ_9485" data-name="グループ 9485">
                <path id="パス_7547" data-name="パス 7547" d="M789.114,565.608h10.392a5.906,5.906,0,0,1,3.75,1.635,5.25,5.25,0,0,1,1.728,3.809v.17q0,.049,0,.1l-.846,11.174c-.1,1.743-1.562,3.1-3.973,3.724l-1.026,14.049a2.427,2.427,0,0,1-2.393,2.337h-4.407a2.465,2.465,0,0,1-2.381-2.211q-.006-.044-.01-.088l-1.026-14.046c-1.964-.433-3.946-1.6-4.061-3.767l-.846-11.342q0-.048,0-.1a5.5,5.5,0,0,1,1.49-3.751,5.228,5.228,0,0,1,3.562-1.693Zm10.312,2.584H789.144a2.887,2.887,0,0,0-2.552,2.818l.844,11.3c0,.012,0,.023,0,.035.041.855,1.588,1.356,2.6,1.482h.094a1.292,1.292,0,0,1,1.288,1.2l1.095,14.991h4.048l1.095-14.991a1.292,1.292,0,0,1,1.288-1.2H799c1.263-.242,2.523-.818,2.557-1.485,0-.011,0-.022,0-.033l.844-11.139v-.121A3.2,3.2,0,0,0,799.426,568.192Z" transform="translate(-785.3 -566.9)" fill="#1c83d1"/>
              </g>
            </g>
          </g>
        </g>
      </g>
      <g id="グループ_9495" data-name="グループ 9495" transform="translate(26.529 7.459)">
        <g id="グループ_9494" data-name="グループ 9494">
          <g id="グループ_9491" data-name="グループ 9491" transform="translate(5.679)">
            <g id="グループ_9490" data-name="グループ 9490">
              <path id="パス_7548" data-name="パス 7548" d="M780.6,569a3.9,3.9,0,1,0-3.9-3.9A3.836,3.836,0,0,0,780.6,569Z" transform="translate(-776.7 -561.2)" fill="#f8f8f8"/>
              <path id="パス_7548_-_アウトライン" data-name="パス 7548 - アウトライン" d="M780.6,572.873a7.692,7.692,0,0,1-7.774-7.774,7.774,7.774,0,1,1,7.774,7.774Z" transform="translate(-776.7 -561.2)" fill="#f8f8f8"/>
            </g>
          </g>
          <g id="グループ_9493" data-name="グループ 9493" transform="translate(0 11.781)">
            <g id="グループ_9492" data-name="グループ 9492">
              <path id="パス_7549" data-name="パス 7549" d="M770,579.253l.847,11.358c.085,1.78,2.289,2.543,3.814,2.712h.169l1.1,15.087a1.184,1.184,0,0,0,1.1,1.1h4.407a1.122,1.122,0,0,0,1.1-1.1l1.1-15.087h.17c1.441-.254,3.645-1.017,3.729-2.712l.847-11.188v-.17a4.478,4.478,0,0,0-4.238-4.153H773.814A4.163,4.163,0,0,0,770,579.253Z" transform="translate(-770 -575.1)" fill="#f8f8f8"/>
              <path id="パス_7549_-_アウトライン" data-name="パス 7549 - アウトライン" d="M773.814,571.225h10.341a8.372,8.372,0,0,1,8.113,8.029l-.859,11.65c-.114,2.3-1.623,4.239-4.093,5.374l-.907,12.414a4.916,4.916,0,0,1-4.967,4.7h-4.407a5.027,5.027,0,0,1-4.938-4.43l-.932-12.658a6.269,6.269,0,0,1-4.188-5.5l-.841-11.254a8.084,8.084,0,0,1,7.517-8.314Q773.733,571.225,773.814,571.225Zm9.937,18.174.777-10.268-10.465-.151.588,10.266c1.9.263,3.91,1.937,4.046,3.8l.545,7.458.54-7.458a3.875,3.875,0,0,1,3.865-3.593Z" transform="translate(-770 -575.1)" fill="#f8f8f8"/>
            </g>
          </g>
        </g>
      </g>
      <g id="グループ_9501" data-name="グループ 9501" transform="translate(26.529 7.459)">
        <g id="グループ_9500" data-name="グループ 9500">
          <g id="グループ_9497" data-name="グループ 9497" transform="translate(5.679)">
            <g id="グループ_9496" data-name="グループ 9496">
              <path id="パス_7550" data-name="パス 7550" d="M780.6,570.29a5.235,5.235,0,1,1,3.657-1.533A5.135,5.135,0,0,1,780.6,570.29Zm0-7.8a2.642,2.642,0,0,0-2.607,2.607,2.55,2.55,0,0,0,2.607,2.607,2.607,2.607,0,0,0,0-5.214Z" transform="translate(-776.7 -561.2)" fill="#1c83d1"/>
            </g>
          </g>
          <g id="グループ_9499" data-name="グループ 9499" transform="translate(0 11.781)">
            <g id="グループ_9498" data-name="グループ 9498">
              <path id="パス_7551" data-name="パス 7551" d="M773.814,573.808h10.392a5.906,5.906,0,0,1,3.75,1.635,5.251,5.251,0,0,1,1.728,3.809v.17c0,.033,0,.065,0,.1l-.846,11.173c-.1,1.743-1.562,3.1-3.973,3.724l-1.026,14.049a2.427,2.427,0,0,1-2.393,2.337h-4.407a2.465,2.465,0,0,1-2.381-2.211q-.006-.044-.01-.088l-1.026-14.046c-1.964-.433-3.946-1.6-4.061-3.767l-.846-11.342q0-.048,0-.1a5.5,5.5,0,0,1,1.49-3.751,5.228,5.228,0,0,1,3.562-1.693Zm10.312,2.584H773.844a2.887,2.887,0,0,0-2.552,2.818l.844,11.3q0,.017,0,.035c.041.855,1.588,1.356,2.6,1.482h.094a1.292,1.292,0,0,1,1.288,1.2l1.095,14.991h4.048l1.095-14.991a1.292,1.292,0,0,1,1.288-1.2h.052c1.263-.242,2.523-.818,2.557-1.485,0-.011,0-.022,0-.033l.844-11.139v-.121A3.2,3.2,0,0,0,784.126,576.392Z" transform="translate(-770 -575.1)" fill="#1c83d1"/>
            </g>
          </g>
        </g>
      </g>
    </g>
  </g>
</svg>
