<svg xmlns="http://www.w3.org/2000/svg" xmlns:xlink="http://www.w3.org/1999/xlink" width="287" height="87" viewBox="0 0 287 87">
  <defs>
    <clipPath id="clip-path">
      <rect id="長方形_22972" data-name="長方形 22972" width="287" height="87" transform="translate(320 1797)" fill="#ccc"/>
    </clipPath>
  </defs>
  <g id="マスクグループ_70" data-name="マスクグループ 70" transform="translate(-320 -1797)" clip-path="url(#clip-path)">
    <g id="グループ_9129" data-name="グループ 9129" transform="translate(424 1803.302)">
      <g id="グループ_9125" data-name="グループ 9125" transform="translate(0 9.325)">
        <path id="パス_6996" data-name="パス 6996" d="M1444.208,226.748a27.993,27.993,0,0,1-2.812-.143,1.292,1.292,0,0,1-.185-.032,2.268,2.268,0,0,1-1.731-1.391q-.008-.024-.015-.048c-.845-2.909-1.254-4.5-1.444-5.411a24.263,24.263,0,0,1-5.508-2.315l-.117.077c-.945.62-2.528,1.554-4.7,2.775a1.3,1.3,0,0,1-.224.1,2.026,2.026,0,0,1-.642.1,2.427,2.427,0,0,1-1.641-.646,39.364,39.364,0,0,1-3.924-3.928c-.02-.023-.039-.047-.057-.071a2.392,2.392,0,0,1-.465-2.184,1.288,1.288,0,0,1,.1-.233c1.5-2.619,2.348-4.019,2.851-4.783a23.707,23.707,0,0,1-2.322-5.546c-.84-.183-2.387-.574-5.307-1.407a1.732,1.732,0,0,1-1.2-.889,5.652,5.652,0,0,1-.376-.811,1.288,1.288,0,0,1-.086-.351,27.922,27.922,0,0,1,0-5.625,1.29,1.29,0,0,1,.032-.184,2.268,2.268,0,0,1,1.391-1.732l.048-.015c2.516-.73,4.326-1.213,5.411-1.443a24.268,24.268,0,0,1,2.328-5.532l-.1-.156c-.616-.97-1.546-2.563-2.765-4.734a1.291,1.291,0,0,1-.1-.224,2.357,2.357,0,0,1,.529-2.265,31.683,31.683,0,0,1,3.917-3.919,2.428,2.428,0,0,1,1.641-.646,2.025,2.025,0,0,1,.642.1,1.288,1.288,0,0,1,.232.1c2.62,1.5,4.019,2.348,4.783,2.851a23.708,23.708,0,0,1,5.536-2.319c.189-.916.6-2.534,1.445-5.5.005-.018.011-.036.017-.054a2.218,2.218,0,0,1,1.964-1.427c.944-.093,1.849-.138,2.765-.138a27.984,27.984,0,0,1,2.812.143,1.29,1.29,0,0,1,.185.032,2.268,2.268,0,0,1,1.731,1.391c.006.018.011.036.017.054.847,2.964,1.255,4.582,1.445,5.5a24.277,24.277,0,0,1,5.528,2.327l.156-.1c.97-.616,2.563-1.546,4.734-2.765a1.289,1.289,0,0,1,.224-.1,2.024,2.024,0,0,1,.642-.1,2.43,2.43,0,0,1,1.623.629,31.82,31.82,0,0,1,3.942,3.945q.03.034.057.071a2.392,2.392,0,0,1,.465,2.185,1.291,1.291,0,0,1-.1.224c-1.219,2.171-2.149,3.764-2.765,4.734l-.093.145a23.7,23.7,0,0,1,2.323,5.549c.849.185,2.422.583,5.4,1.435l.054.017a2.217,2.217,0,0,1,1.427,1.964,27.913,27.913,0,0,1,0,5.577,1.3,1.3,0,0,1-.032.185,2.268,2.268,0,0,1-1.391,1.731l-.048.015c-2.516.73-4.326,1.213-5.411,1.443a24.25,24.25,0,0,1-2.316,5.51l.077.117c.62.945,1.554,2.528,2.775,4.7a1.291,1.291,0,0,1,.1.224,2.358,2.358,0,0,1-.529,2.265,31.687,31.687,0,0,1-3.917,3.918,2.428,2.428,0,0,1-1.641.646,2.024,2.024,0,0,1-.642-.1,1.29,1.29,0,0,1-.232-.1c-2.59-1.48-3.987-2.329-4.757-2.834a21.129,21.129,0,0,1-5.672,2.868l-.019.081c-.228.959-.661,2.557-1.287,4.749a2.107,2.107,0,0,1-2.01,1.583C1446.028,226.7,1445.123,226.748,1444.208,226.748Zm-2.366-2.7c.807.075,1.583.112,2.366.112s1.559-.037,2.365-.112c1.038-3.649,1.256-4.657,1.3-4.916a1.292,1.292,0,0,1,1.057-1.273h0c2.079-.386,4.091-1.7,6.037-2.973l.313-.2a1.292,1.292,0,0,1,1.6.146,55.051,55.051,0,0,0,4.737,2.871,29.1,29.1,0,0,0,3.5-3.495,46.193,46.193,0,0,0-2.829-4.691,1.292,1.292,0,0,1-.213-1.608,21.645,21.645,0,0,0,2.665-6.351,1.292,1.292,0,0,1,1.25-1,48.387,48.387,0,0,0,5.383-1.391,24.935,24.935,0,0,0,0-4.731,55.064,55.064,0,0,0-5.4-1.393,1.292,1.292,0,0,1-1.234-1,20.807,20.807,0,0,0-2.651-6.329,1.292,1.292,0,0,1,.149-1.579,55.574,55.574,0,0,0,2.878-4.83,29.152,29.152,0,0,0-3.5-3.5,55.618,55.618,0,0,0-4.833,2.88,1.292,1.292,0,0,1-1.557.162,21.65,21.65,0,0,0-6.351-2.665,1.292,1.292,0,0,1-1-1.252,49.932,49.932,0,0,0-1.392-5.472c-.806-.075-1.582-.112-2.365-.112s-1.559.037-2.365.112a49.871,49.871,0,0,0-1.392,5.472,1.292,1.292,0,0,1-1,1.252,20.809,20.809,0,0,0-6.329,2.651,1.292,1.292,0,0,1-1.584-.154,55.021,55.021,0,0,0-4.737-2.871,29.123,29.123,0,0,0-3.5,3.495,55.612,55.612,0,0,0,2.88,4.833,1.292,1.292,0,0,1,.162,1.557,21.644,21.644,0,0,0-2.665,6.351,1.292,1.292,0,0,1-1.25,1,48.385,48.385,0,0,0-5.382,1.391,24.946,24.946,0,0,0,0,4.74l.027.064a55.7,55.7,0,0,0,5.463,1.411,1.292,1.292,0,0,1,1.234,1,20.809,20.809,0,0,0,2.651,6.329,1.292,1.292,0,0,1-.153,1.584,55.016,55.016,0,0,0-2.871,4.737,36.777,36.777,0,0,0,3.5,3.5,46.223,46.223,0,0,0,4.688-2.828,1.292,1.292,0,0,1,1.608-.213,21.65,21.65,0,0,0,6.351,2.665,1.292,1.292,0,0,1,1,1.25A48.43,48.43,0,0,0,1441.841,224.053Zm2.38-12.8a13.756,13.756,0,0,1-2.971-.315,14.482,14.482,0,0,1-11.089-17.177,14.42,14.42,0,0,1,11.486-11.192l.039-.007a16.735,16.735,0,0,1,2.6-.21,13.753,13.753,0,0,1,2.974.316,14.459,14.459,0,0,1,9.1,6.254,14.178,14.178,0,0,1,1.99,10.832,14.448,14.448,0,0,1-4.021,7.467,14.039,14.039,0,0,1-7.486,3.819l-.018,0A16.735,16.735,0,0,1,1444.221,211.249Zm-2.112-26.142a11.883,11.883,0,0,0-7.784,18.124l.01.015a11.447,11.447,0,0,0,7.455,5.161l.014,0a11.166,11.166,0,0,0,2.417.255,14.135,14.135,0,0,0,2.188-.177,11.631,11.631,0,0,0,9.406-9.263l0-.018a11.614,11.614,0,0,0-1.628-8.879,11.891,11.891,0,0,0-7.483-5.141h-.005a11.167,11.167,0,0,0-2.417-.255A14.133,14.133,0,0,0,1442.109,185.107Z" transform="translate(-1415.55 -168.05)" fill="#1c83d1"/>
      </g>
      <g id="グループ_9128" data-name="グループ 9128" transform="translate(37.255)">
        <g id="グループ_9127" data-name="グループ 9127">
          <g id="グループ_9126" data-name="グループ 9126" transform="translate(0 14.192)">
            <path id="パス_6997" data-name="パス 6997" d="M1472.047,240.258a3.712,3.712,0,0,1-3.73-3.548l-1.91-25.565c-2.82-.819-6.277-3.093-6.55-6.277l-1.456-19.924V184.4a9.164,9.164,0,0,1,8.643-9.1h20.652a9.054,9.054,0,0,1,8.734,9.1l-1.456,20.379c-.273,3-3.366,5.459-6.55,6.277l-1.911,25.565a3.838,3.838,0,0,1-3.73,3.548h-10.735Z" transform="translate(-1456.671 -173.571)" fill="#f8f8f8"/>
            <path id="パス_6998" data-name="パス 6998" d="M1487.523,176.948a7.329,7.329,0,0,1,7.005,7.369l-1.456,20.2c-.182,2.365-3.457,4.549-6.1,4.913h-.364l-2,26.929a2.065,2.065,0,0,1-2,1.911h-10.735a2.065,2.065,0,0,1-2-1.911l-2-26.929h-.364c-2.638-.364-5.913-2.456-6.1-4.913l-1.456-19.924v-.364a7.253,7.253,0,0,1,6.914-7.369h20.652m0-3.457h-20.561a10.84,10.84,0,0,0-10.462,10.826v.637l1.455,20.015c.273,3.457,3.275,6.186,6.642,7.46l1.82,24.382a5.567,5.567,0,0,0,5.549,5.186H1482.7a5.632,5.632,0,0,0,5.55-5.186l1.819-24.382c3.366-1.274,6.277-4,6.641-7.46l1.456-20.288v-.273a10.956,10.956,0,0,0-10.644-10.917Z" transform="translate(-1456.5 -173.4)" fill="#f8f8f8"/>
          </g>
          <path id="パス_6999" data-name="パス 6999" d="M1467.214,175.908h20.712a8.681,8.681,0,0,1,8.237,8.66q0,.046,0,.093l-1.456,20.2v.006a6.008,6.008,0,0,1-2.635,4.138,10.4,10.4,0,0,1-3.9,1.834l-1.922,25.867v.012a3.355,3.355,0,0,1-3.289,3.1h-10.736a3.355,3.355,0,0,1-3.289-3.1V236.7l-1.923-25.775a10.411,10.411,0,0,1-3.9-1.8,5.974,5.974,0,0,1-2.642-4.18l-1.456-19.925c0-.031,0-.063,0-.094v-.364a8.773,8.773,0,0,1,2.375-6.036,8.19,8.19,0,0,1,5.8-2.624Zm20.62,2.584h-20.6a5.981,5.981,0,0,0-5.639,6.077v.317l1.452,19.877c.124,1.679,2.761,3.386,4.9,3.715h.27a1.292,1.292,0,0,1,1.288,1.2l2,26.831a.776.776,0,0,0,.714.722h10.736a.777.777,0,0,0,.714-.721l2-26.922a1.292,1.292,0,0,1,1.288-1.2h.27a7.656,7.656,0,0,0,3.282-1.444,3.617,3.617,0,0,0,1.618-2.273l1.452-20.146A6.062,6.062,0,0,0,1487.834,178.492Z" transform="translate(-1456.843 -159.55)" fill="#1c83d1"/>
          <path id="パス_7000" data-name="パス 7000" d="M1478.65,172.193a7.815,7.815,0,1,1,5.553-2.289A7.8,7.8,0,0,1,1478.65,172.193Zm0-13.1a5.258,5.258,0,1,0,5.259,5.258A5.2,5.2,0,0,0,1478.65,159.092Z" transform="translate(-1457.908 -157.8)" fill="#1c83d1"/>
          <path id="線_987" data-name="線 987" d="M0,32.042A1.292,1.292,0,0,1-1.292,30.75V0A1.292,1.292,0,0,1,0-1.292,1.292,1.292,0,0,1,1.292,0V30.75A1.292,1.292,0,0,1,0,32.042Z" transform="translate(20.743 48.309)" fill="#1c83d1"/>
          <path id="線_988" data-name="線 988" d="M1.636,23.763a1.292,1.292,0,0,1-1.287-1.2L-1.288.094A1.292,1.292,0,0,1-.094-1.288,1.292,1.292,0,0,1,1.288-.094L2.926,22.377A1.292,1.292,0,0,1,1.731,23.76C1.7,23.762,1.668,23.763,1.636,23.763Z" transform="translate(9.734 27.748)" fill="#1c83d1"/>
          <path id="線_989" data-name="線 989" d="M0,23.763q-.05,0-.1,0a1.292,1.292,0,0,1-1.189-1.387L.441-.1A1.292,1.292,0,0,1,1.828-1.288,1.292,1.292,0,0,1,3.017.1L1.288,22.57A1.292,1.292,0,0,1,0,23.763Z" transform="translate(30.113 27.748)" fill="#1c83d1"/>
        </g>
      </g>
    </g>
  </g>
</svg>
